<svg width="110" height="191" viewBox="0 0 110 191" fill="none" xmlns="http://www.w3.org/2000/svg">
<g clip-path="url(#clip0_250_2358)">
<path d="M15.3887 190.567C15.3887 190.807 15.5806 191 15.8197 191H109.569C109.808 191 110 190.807 110 190.567C110 190.327 109.808 190.135 109.569 190.135H15.8197C15.5806 190.135 15.3887 190.327 15.3887 190.567Z" fill="#484565"/>
<path d="M64.6899 0.119403C64.6899 0.119403 56.7543 -1.81089 51.9516 9.85083C47.9494 19.5713 45.1098 24.7624 48.3587 28.2886C49.5213 29.55 51.1801 30.2297 52.8897 30.2879L71.1803 30.8914C71.1803 30.8914 77.8954 13.217 73.8135 6.82635C69.7316 0.43203 64.6899 0.119403 64.6899 0.119403Z" fill="#2F2E41"/>
<path d="M68.4793 29.4225L59.6816 32.327V19.6147H67.6643L68.4793 29.4225Z" fill="#F6A6A9"/>
<path d="M61.7278 183.464H53.4843L48.707 139.268H61.4453L61.7278 183.464Z" fill="#F6A6A9"/>
<path d="M45.4574 190.568C44.5918 190.568 43.8203 190.546 43.2372 190.491C41.0459 190.291 38.9597 188.67 37.9094 187.721C37.4385 187.296 37.2864 186.616 37.5327 186.031C37.7101 185.609 38.0615 185.297 38.4961 185.173L44.2803 183.515L53.6466 177.172L53.7516 177.361C53.7914 177.43 54.7114 179.095 55.0193 180.218C55.1352 180.647 55.1062 181.003 54.9287 181.276C54.8056 181.469 54.6354 181.578 54.4941 181.64C54.6643 181.818 55.1967 182.178 56.8302 182.439C59.2207 182.821 59.7205 180.334 59.7422 180.229L59.7567 180.145L59.8292 180.098C60.9665 179.364 61.6655 179.029 61.9082 179.099C62.0603 179.142 62.3102 179.218 62.9875 185.987C63.0563 186.198 63.5308 187.758 63.2084 189.244C62.8571 190.866 55.8052 190.306 54.3927 190.179C54.3528 190.182 49.0721 190.56 45.4538 190.56V190.568H45.4574Z" fill="#2F2E41"/>
<path d="M80.343 183.464H72.1032L67.3223 139.268H80.0605L80.343 183.464Z" fill="#F6A6A9"/>
<path d="M64.0785 190.568C63.2129 190.568 62.4414 190.546 61.8583 190.491C59.667 190.291 57.5808 188.67 56.5304 187.721C56.0596 187.296 55.9075 186.616 56.1538 186.031C56.3312 185.609 56.6826 185.297 57.1172 185.173L62.9014 183.515L72.2677 177.172L72.3727 177.361C72.4125 177.43 73.3325 179.095 73.6404 180.218C73.7563 180.647 73.7273 181.003 73.5498 181.276C73.4267 181.469 73.2564 181.578 73.1152 181.64C73.2854 181.818 73.8179 182.178 75.4513 182.439C77.8418 182.821 78.3416 180.334 78.3633 180.229L78.3778 180.145L78.4503 180.098C79.5875 179.364 80.2866 179.029 80.5293 179.099C80.6814 179.142 80.9313 179.218 81.6086 185.987C81.6774 186.198 82.1519 187.758 81.8295 189.244C81.4782 190.866 74.4263 190.306 73.0138 190.179C72.9739 190.182 67.6932 190.56 64.0749 190.56V190.568H64.0785Z" fill="#2F2E41"/>
<path d="M82.7158 74.91H42.6719L57.0654 27.3652H73.0308L82.7158 74.91Z" fill="#DDDEDF"/>
<path d="M41.5822 101.589C41.1041 104.5 39.17 106.591 37.2613 106.253C35.3525 105.915 34.1899 103.283 34.668 100.371C34.8418 99.204 35.3018 98.1025 36.0081 97.1537L38.1885 84.8413L44.1248 86.0882L41.3432 98.0916C41.709 99.2258 41.7923 100.425 41.5858 101.589L41.5822 101.589Z" fill="#F6A6A9"/>
<path d="M59.5873 27.3725C59.5873 27.3725 49.6415 27.1107 48.5948 29.7353C47.5481 32.3636 35.248 94.8817 35.248 94.8817H43.3611L59.5873 27.3725Z" fill="#DDDEDF"/>
<path d="M61.6983 22.6177C66.5411 22.6177 70.467 18.6775 70.467 13.8169C70.467 8.95637 66.5411 5.01611 61.6983 5.01611C56.8556 5.01611 52.9297 8.95637 52.9297 13.8169C52.9297 18.6775 56.8556 22.6177 61.6983 22.6177Z" fill="#F6A6A9"/>
<path d="M63.0751 3.02414C63.0751 3.02414 51.8182 19.8297 53.7125 30.3136L47.1641 26.1949C47.1641 26.1949 51.7748 4.97261 58.6455 3.32586L63.0751 3.02051L63.0751 3.02414Z" fill="#2F2E41"/>
<path d="M74.3938 74.9102H48.1168L33.7378 134.138C33.4734 136.639 35.0526 138.973 37.4756 139.624C45.3642 141.743 64.2923 144.75 92.9452 136.381C95.7015 135.578 97.2662 132.659 96.4006 129.911L74.3938 74.9138V74.9102Z" fill="#2F2E41"/>
<path d="M38.9525 35.7991L38.7714 35.6173L38.5903 35.7991C29.7782 26.9619 15.497 26.9728 6.69213 35.8173C-2.11274 44.6653 -2.29022 59.177 6.5219 68.0142L38.7932 100.371L71.0427 67.9742C79.8476 59.1262 79.6628 44.6144 70.8543 35.7773C62.0422 26.9401 47.761 26.951 38.9561 35.7955C38.9561 35.7955 38.9525 35.7991 38.9525 35.7991Z" fill="#FD7E40"/>
<path d="M62.7852 31.8147L70.0652 28.0669C73.3937 26.8309 77.1062 27.2453 80.0834 29.1901C89.1382 35.101 106.987 48.1332 99.3158 54.5747C89.207 63.0665 75.5415 48.0059 75.5415 48.0059L62.7852 31.8147Z" fill="#DDDEDF"/>
<path d="M62.6263 38.2197C60.0945 36.722 58.8522 34.1556 59.8555 32.487C60.8588 30.8221 63.7237 30.6876 66.259 32.1853C67.2804 32.7706 68.1388 33.5994 68.7618 34.6027L79.4102 41.0952L76.107 46.199L65.9584 39.2557C64.7704 39.1867 63.6259 38.8304 62.6226 38.2161H62.6262L62.6263 38.2197Z" fill="#F6A6A9"/>
<path d="M69.8613 44.1052L72.8892 36.8457L87.6848 41.7605L81.0675 52.8151L69.8613 44.1052Z" fill="#DDDEDF"/>
</g>
<defs>
<clipPath id="clip0_250_2358">
<rect width="110" height="191" fill="white"/>
</clipPath>
</defs>
</svg>
