<svg width="89" height="98" viewBox="0 0 89 98" fill="none" xmlns="http://www.w3.org/2000/svg">
<g clip-path="url(#clip0_270_84)">
<path d="M23.0659 42.2213C33.3002 42.2213 41.5967 33.8742 41.5967 23.5775C41.5967 13.2807 33.3002 4.93359 23.0659 4.93359C12.8317 4.93359 4.53516 13.2807 4.53516 23.5775C4.53516 33.8742 12.8317 42.2213 23.0659 42.2213Z" fill="#EB737A"/>
<path d="M50.7515 7.204L15.0596 26.9843C10.9365 32.3028 89.2797 32.6316 88.6332 27.0038L54.0229 7.22356C53.0378 6.66055 51.746 6.65283 50.7515 7.204Z" fill="#FD7E40"/>
<path opacity="0.2" d="M50.7515 7.204L15.0596 26.9843C10.9365 32.3028 89.2797 32.6316 88.6332 27.0038L54.0229 7.22356C53.0378 6.66055 51.746 6.65283 50.7515 7.204Z" fill="black"/>
<path opacity="0.8" d="M88.4842 97.9998L79.4052 97.8052H17.1492L0 97.4158C56.8546 83.897 39.3736 85.061 88.4842 97.9998Z" fill="#F2F2F2"/>
<path d="M80.125 97.4159L79.4044 97.8053H17.1484C59.7051 88.9671 34.191 89.7453 80.125 97.4159Z" fill="#E6E6E6"/>
<path d="M50.0469 5.55297H52.7264L51.8228 0.428816C51.767 0.112233 51.553 0 51.3866 0C51.2203 0 51.0063 0.112233 50.9505 0.428816L50.0469 5.55297Z" fill="#3F3D56"/>
<path d="M52.7433 22.46H49.7891V94.9553H52.7433V22.46Z" fill="#A86C6C"/>
<path d="M51.2736 33.777C50.0132 33.777 48.8284 33.286 47.9326 32.3913L40.4766 24.9435L41.0857 24.3262L48.5417 31.7739C49.2831 32.5145 50.2618 32.9187 51.3115 32.907C52.3562 32.897 53.332 32.4761 54.0595 31.7217L61.1842 24.332L61.8049 24.9377L54.6801 32.3274C53.7905 33.25 52.5971 33.7647 51.3197 33.7769C51.3043 33.777 51.2888 33.777 51.2736 33.777Z" fill="#3F3D56"/>
<path d="M52.31 28.0911C48.6412 28.0911 44.9435 28.0784 41.3544 28.0529C33.7504 27.9985 27.2582 27.891 22.5799 27.742C14.6058 27.488 14.5209 27.1994 14.4846 27.0763C14.4763 27.0478 14.4734 26.9925 14.5485 26.9428L50.1425 3.39262C50.9983 2.82487 52.0997 2.83259 52.9481 3.41286L88.9339 26.9622C89.009 27.0134 89.0052 27.0688 88.9964 27.0973C88.9515 27.2421 88.8152 27.6825 73.0148 27.9413C67.0031 28.0397 59.7173 28.0911 52.31 28.0911Z" fill="#FD7E40"/>
<path d="M59.1627 63.0345L54.6515 63.0394C54.1465 64.1689 54.8366 65.4899 55.7192 66.3533C56.6018 67.2167 57.7083 67.879 58.36 68.9298C59.8061 71.2614 58.4434 74.3275 58.921 77.0334C59.5642 80.6771 63.3609 82.9701 64.5171 86.4832C65.1712 88.4706 64.8739 90.7516 63.7326 92.5021C63.5219 92.8253 63.2787 93.1443 63.205 93.5236C63.1048 94.0394 63.3746 94.6058 63.8369 94.8503C64.2993 95.0948 64.916 94.9972 65.2815 94.6217C64.9246 95.0298 65.0416 95.7186 65.4422 96.0832C65.8428 96.4479 66.4396 96.5256 66.9682 96.4133C68.6811 96.0494 69.5433 94.0586 69.6126 92.2986C69.6819 90.5387 69.2429 88.7554 69.5855 87.0281C69.8039 89.5071 72.5917 91.0814 72.8102 93.5603C72.8507 94.0197 70.3273 95.4015 70.5621 95.7976C71.1558 96.7989 72.5705 96.8023 73.7232 96.6823C75.7076 96.4758 77.9114 96.154 79.1561 94.5855C79.9947 93.5287 80.212 92.1064 80.2396 90.7544C80.3116 87.2247 79.2665 83.6804 77.2929 80.7613C74.6662 76.8762 70.4905 74.1227 68.4285 69.9067C67.7277 68.4739 67.2988 66.9201 66.617 65.4781C65.9351 64.036 64.9321 62.6561 63.481 62.009C62.0299 61.3618 60.0763 61.681 59.2389 63.0376" fill="#A86C6C"/>
<path d="M73.1479 94.051C73.0581 94.051 72.97 94.0317 72.8873 93.9929C72.8228 93.9627 72.7949 93.8856 72.8249 93.8207C72.8549 93.7559 72.9315 93.7277 72.996 93.758C73.1381 93.8245 73.2749 93.781 73.3646 93.7325C73.5488 93.6332 73.6931 93.4296 73.7237 93.226C73.7829 92.8327 73.587 92.4308 73.4141 92.0762C72.91 91.0424 72.4116 89.9351 72.3367 88.765C72.2524 87.4458 72.7937 86.2169 73.7158 85.6343C74.4012 85.2013 75.3074 85.088 76.2675 85.315C77.0899 85.5096 77.8476 85.9178 78.616 86.3546C78.6779 86.3897 78.6997 86.4688 78.6647 86.5311C78.6297 86.5934 78.5512 86.6154 78.4893 86.5802C77.7091 86.1367 76.9989 85.7544 76.2085 85.5673C75.316 85.3562 74.4793 85.458 73.8527 85.8537C73.0096 86.3864 72.5154 87.5226 72.5938 88.7484C72.6656 89.8711 73.1526 90.9516 73.6453 91.9621C73.8255 92.3315 74.0496 92.7913 73.9784 93.2648C73.9356 93.5495 73.7425 93.8227 73.4864 93.9609C73.3752 94.0209 73.2602 94.051 73.1479 94.051Z" fill="#2F2E41"/>
<path d="M65.6484 65.2895C66.3105 66.6112 65.9611 68.3665 64.8442 69.3298C64.6044 69.5367 64.3344 69.7099 64.12 69.9432C63.9055 70.1766 63.7481 70.4927 63.8022 70.8058C63.0705 70.0756 62.3245 69.3253 61.882 68.3888C61.4395 67.4524 61.3531 66.2768 61.929 65.417C62.2038 65.0067 62.6043 64.6991 62.9161 64.3167C63.2279 63.9342 63.4528 63.4134 63.2842 62.9487" fill="#7B3F3F"/>
<path d="M78.8027 90.6736C78.4528 91.75 79.0289 92.9887 79.9741 93.6037C80.9193 94.2187 82.1408 94.2824 83.2319 94.0042C85.3419 93.4661 87.0748 91.6485 87.5214 89.5051C87.7071 88.6136 87.6941 87.6582 88.1146 86.8516C88.3788 86.3446 88.8151 85.8866 88.8277 85.3142C88.8379 84.8491 88.5379 84.4076 88.1285 84.1913C87.7191 83.975 87.2205 83.9674 86.7798 84.1083C85.7294 84.4441 85.0847 85.5143 84.7505 86.571C84.4164 87.6277 84.2917 88.7575 83.806 89.7529C83.3202 90.7482 82.3162 91.6174 81.2244 91.4655C80.2803 91.3342 79.4812 90.4777 78.5352 90.5944" fill="#A86C6C"/>
<path d="M26.0431 77.2415C24.766 77.4384 23.8318 78.261 23.9565 79.0787C24.0812 79.8964 25.2175 80.3994 26.495 80.2022C27.0064 80.1305 27.4933 79.9366 27.9149 79.6367L37.1534 78.2364L37.5016 75.0254L27.5666 77.3529C27.0749 77.1939 26.5525 77.1556 26.0431 77.2415Z" fill="#FFB6B6"/>
<path d="M49.3129 70.5463L47.2188 75.0171L36.6914 78.5826L37.2044 74.9489L46.9192 70.3301L49.3129 70.5463Z" fill="#E6E6E6"/>
<path d="M29.8991 87.5219L28.019 92.3065L25.5859 90.6375L27.0237 85.6304L29.8991 87.5219Z" fill="#FFB6B6"/>
<path d="M22.047 85.7417L17.0703 90.5262L19.061 92.6404L24.1483 88.6347L22.047 85.7417Z" fill="#FFB6B6"/>
<path d="M50.2484 70.1645L50.1931 69.775L48.9213 67.2715L44.7188 68.3842L45.4929 71.8335L50.2484 70.1645Z" fill="#FFB6B6"/>
<path d="M48.4744 86.8543L48.6037 88.5256C48.6037 88.5256 49.138 95.5333 44.8248 96.0897C40.5117 96.646 38.6316 97.2023 36.088 92.8629L32.1066 85.7417L29.7811 88.5256L26.6875 86.0755C26.6875 86.0755 28.8994 77.3965 30.6689 77.0627C30.8901 77.021 31.1112 77.0001 31.329 76.9956C32.7939 76.9649 34.1748 77.6858 35.0513 78.8671L40.0693 85.6304L41.8941 84.7959L48.4744 86.8543Z" fill="#7B3F3F"/>
<path d="M24.5907 92.0843L25.7082 90.4253L28.273 91.6503C28.273 91.6503 29.1251 94.6435 28.1297 94.9773C27.1344 95.3111 24.3695 94.8661 24.3695 94.8661C24.3695 94.8661 19.2822 95.9787 19.1716 94.9773C19.061 93.9759 21.4941 93.7534 21.4941 93.7534L24.5907 92.0843Z" fill="#FFB6B6"/>
<path d="M35.4267 90.7491L27.7405 85.8765L23.8144 89.4139L21.1602 86.2984C21.1602 86.2984 26.0263 79.0659 27.464 78.7321C28.9017 78.3983 31.2242 78.1758 31.2242 78.1758L38.3022 84.7406L35.4267 90.7491Z" fill="#7B3F3F"/>
<path d="M17.6043 90.0991L19.2296 92.4319L19.166 93.1515C19.166 93.1515 18.5061 96.0432 16.9578 95.065C15.4095 94.0868 15.2989 93.8643 15.2989 93.8643C15.2989 93.8643 10.8752 94.8657 10.4328 93.0854C9.99041 91.3051 11.2069 91.6389 11.2069 91.6389L12.3116 92.3065L16.6174 90.8584L17.6043 90.0991Z" fill="#FFB6B6"/>
<path d="M46.0468 69.608C48.0013 69.608 49.5858 68.0139 49.5858 66.0474C49.5858 64.081 48.0013 62.4868 46.0468 62.4868C44.0923 62.4868 42.5078 64.081 42.5078 66.0474C42.5078 68.0139 44.0923 69.608 46.0468 69.608Z" fill="#FFB6B6"/>
<path d="M45.2156 71.11L50.3029 69.5522C50.3029 69.5522 52.2936 74.2255 51.9618 76.3396C51.6301 78.4537 48.6074 88.5257 48.6074 88.5257L41.8978 84.796C41.8978 84.796 41.7872 82.5707 41.4554 81.5693C41.1237 80.5678 40.073 77.508 42.3955 74.9488C44.7179 72.3896 45.2156 71.11 45.2156 71.11Z" fill="#E6E6E6"/>
<path d="M34.0195 94.4747C33.1916 95.4726 33.0322 96.7113 33.6636 97.2414C34.2949 97.7714 35.4776 97.392 36.3057 96.3936C36.642 95.9993 36.8795 95.5298 36.9983 95.0242L44.8356 86.1826L42.4069 84.8618L35.235 93.5439C34.7618 93.752 34.345 94.0712 34.0195 94.4747Z" fill="#FFB6B6"/>
<path d="M49.118 73.355L50.3204 78.147L44.4352 87.6252L44.9664 87.5032L41.75 85.1258L42.5391 84.4898L47.1319 74.7167L49.118 73.355Z" fill="#E6E6E6"/>
<path d="M42.7806 65.4353C43.6882 65.4331 43.7397 65.4392 43.8865 65.4353C45.0122 65.4055 45.3066 64.9599 45.8772 64.9903C46.8956 65.0445 45.5515 70.1816 44.9924 72.5565C44.4442 74.8857 46.297 76.9728 46.4302 77.1185C48.3108 79.1763 51.6142 79.5526 52.181 78.6763C52.6398 77.967 51.0138 76.8885 51.4069 75.3382C51.7911 73.8228 53.5652 73.9842 54.0611 72.5565C54.5805 71.0614 52.8352 70.3074 51.7387 66.6593C51.1089 64.5642 51.2203 64.1738 50.6327 62.8762C49.0621 59.4076 41.3633 60.8844 42.2276 64.1001C42.3948 64.7221 41.9499 65.4373 42.7806 65.4353Z" fill="#7B3F3F"/>
</g>
<defs>
<clipPath id="clip0_270_84">
<rect width="89" height="98" fill="white"/>
</clipPath>
</defs>
</svg>
