<svg width="98" height="80" viewBox="0 0 98 80" fill="none" xmlns="http://www.w3.org/2000/svg">
<g clip-path="url(#clip0_153_316)">
<rect x="25" y="32" width="48" height="48" rx="24" fill="#BDBDBD"/>
<rect width="40" height="12" transform="translate(29 68)" fill="url(#paint0_linear_153_316)"/>
<rect width="44" height="2" transform="translate(27 66)" fill="#FAFCFC"/>
<rect width="46" height="6" transform="translate(26 60)" fill="url(#paint1_linear_153_316)"/>
<rect width="48" height="28" transform="translate(25 32)" fill="url(#paint2_linear_153_316)"/>
</g>
<rect x="25.5" y="32.5" width="47" height="47" rx="23.5" stroke="#FCFCFC"/>
<path d="M55.5318 21.1033C55.4298 21.3065 55.2338 21.9037 54.9563 22.8462C54.6215 24.0001 54.4868 24.4145 54.4379 24.4673C54.3685 24.5323 54.4297 23.6994 54.5644 22.7203C54.7032 21.7412 54.7277 21.2049 54.6338 21.3268C54.6052 21.3674 54.5154 21.4283 54.4297 21.4608C54.3317 21.5015 54.2827 21.5502 54.2827 21.603C54.2827 21.6437 54.2623 21.6924 54.2419 21.7046C54.1521 21.7615 53.8297 22.505 53.1684 24.1991C53.1153 24.3373 53.0541 24.4348 53.0418 24.4104C53.0255 24.386 52.9929 23.9919 52.9643 23.5329C52.9398 23.0738 52.9031 22.7 52.8827 22.7C52.8663 22.7 52.7316 22.8219 52.5847 22.9722C52.2949 23.281 52.2785 23.3135 51.9397 24.4876C51.654 25.487 51.1029 28.0303 51.0376 28.6804C51.0172 28.8795 50.9968 28.916 50.9315 28.916C50.8907 28.916 50.8539 28.8957 50.8539 28.8673C50.8539 28.8388 50.809 28.7535 50.7601 28.6763C50.707 28.5951 50.5764 28.3757 50.4662 28.1847C50.0988 27.5306 49.6702 26.9253 49.3355 26.5759C49.1518 26.3849 48.964 26.2102 48.9191 26.1858C48.8048 26.1249 48.7069 26.259 48.6701 26.519C48.6538 26.6287 48.6252 26.7221 48.6048 26.7221C48.5599 26.7221 48.417 26.4459 48.2252 25.9786C48.0456 25.548 47.8537 25.227 47.3639 24.5485C47.1639 24.2682 46.9435 23.9635 46.8782 23.8741C46.8129 23.7807 46.6822 23.6263 46.5843 23.5247L46.4047 23.3419V23.6222C46.4047 23.7847 46.4373 24.0082 46.4863 24.1626C46.5312 24.3088 46.5761 24.4876 46.5884 24.5567C46.6047 24.6989 46.5475 24.7395 46.5108 24.6176C46.4945 24.577 46.421 24.4714 46.3434 24.382C46.2659 24.2967 46.2006 24.2113 46.2006 24.1951C46.2006 24.1829 46.0455 23.9838 45.8536 23.7563C45.6618 23.5288 45.5066 23.3257 45.5066 23.3053C45.5066 23.285 45.4454 23.1997 45.3679 23.1184C45.2944 23.0331 45.225 22.9275 45.2168 22.8828C45.2046 22.8259 45.1638 22.7975 45.0658 22.7894C44.9964 22.7812 44.9352 22.7853 44.9352 22.7934C44.9352 22.8016 44.9882 22.9884 45.0576 23.2119C45.1229 23.4313 45.1801 23.6832 45.1801 23.7685V23.9269L44.9352 23.675C44.8005 23.5369 44.6903 23.4069 44.6903 23.3866C44.6903 23.3663 44.629 23.281 44.5556 23.1997C44.478 23.1144 44.3474 22.9316 44.2617 22.7934C44.1759 22.6512 44.0821 22.5172 44.0535 22.4928C43.9514 22.4115 43.9882 22.7487 44.1392 23.3582C44.2208 23.671 44.278 23.9594 44.2698 23.996C44.2494 24.0813 43.5637 23.3988 43.1269 22.8544C42.8779 22.5456 42.7391 22.4115 42.4738 22.2409C42.2901 22.119 42.0983 22.0093 42.0452 21.9971C41.9554 21.9768 41.9513 21.9849 41.9799 22.1028C42.086 22.5984 42.2289 22.8503 43.4616 24.7111C44.1433 25.7389 44.8168 26.7424 44.9556 26.9456C45.1923 27.2909 45.474 27.945 45.4087 28.01C45.3719 28.0466 45.2128 27.9288 45.0617 27.7541C44.9882 27.6647 44.5066 27.0268 43.9963 26.3362C43.3881 25.5195 42.9473 24.9629 42.735 24.7517L42.4044 24.4267V24.6582C42.4044 24.7923 42.4411 24.9833 42.4901 25.1133C42.5758 25.3448 43.7759 27.3112 44.3637 28.1847C44.8617 28.9282 45.3434 29.5823 46.0006 30.403C46.9067 31.5406 46.9843 31.6218 47.3394 31.8006C47.6578 31.959 47.6578 31.9672 47.3639 32.0322C47.0455 32.1053 46.9394 32.024 46.1516 31.1505C45.7597 30.7158 44.8699 29.8017 44.1719 29.1232C43.0085 27.9897 42.8779 27.876 42.5636 27.7134C42.3758 27.6159 42.2166 27.5347 42.2126 27.5347C42.2044 27.5347 42.2003 27.5834 42.2003 27.6444C42.2003 27.7784 42.3595 28.0466 42.5309 28.205C42.6044 28.27 42.8248 28.5463 43.0208 28.8145C43.2208 29.0826 43.433 29.367 43.5024 29.4442C43.8412 29.8505 43.7596 29.9764 43.3392 29.6961C42.9228 29.4198 42.0411 28.9038 41.8942 28.851C41.8289 28.8266 41.7064 28.7657 41.6288 28.7169C41.5513 28.6723 41.4533 28.6316 41.4166 28.6316C41.3349 28.6316 41.3472 28.6723 41.5635 29.2492C41.7595 29.7773 41.7554 29.8017 41.5064 29.627C41.2655 29.4604 38.8123 28.1644 37.7918 27.6688C36.7428 27.1609 35.6897 26.7506 35.2815 26.6937C35.1794 26.6815 35.0978 26.6815 35.0978 26.6978C35.0978 26.714 35.1509 26.8278 35.2162 26.9578C35.3794 27.2706 35.5876 27.4615 36.2611 27.8963C37 28.3675 37.0775 28.4163 37.1755 28.4488C37.2245 28.4651 37.2612 28.5097 37.2612 28.5544C37.2612 28.6316 37.2408 28.6357 36.902 28.6073C36.6244 28.5869 36.2815 28.5016 35.3427 28.2254C34.6814 28.0263 34.0855 27.8597 34.0202 27.8516L33.8977 27.8394L33.91 28.0791C33.9263 28.4772 33.9344 28.4813 35.0774 28.9323C35.7958 29.2126 36.6938 29.4767 37.1918 29.5458C37.3388 29.5701 37.3837 29.5904 37.3837 29.6473C37.3837 29.7367 37.3347 29.7448 35.8121 29.8505C34.3141 29.9561 34.2651 29.9642 34.1059 30.078C34.0324 30.1308 33.9344 30.1958 33.8855 30.2202C33.8324 30.2486 33.7916 30.2811 33.7916 30.2933C33.7957 30.3055 33.9834 30.4071 34.212 30.5127L34.6284 30.7077L35.6937 30.4843C37.2204 30.1633 37.8408 30.0536 38.2858 30.0252C38.7511 29.9967 38.8491 30.017 39.0287 30.1755C39.1062 30.2405 39.2164 30.3136 39.2777 30.338C39.3511 30.3664 39.3838 30.403 39.3756 30.4517C39.3675 30.5046 39.3022 30.5289 39.1103 30.5493C38.9715 30.5655 38.7225 30.6143 38.5592 30.659C37.951 30.8296 36.7836 31.2277 36.5836 31.3334L36.3754 31.439L36.4122 31.6909C36.4285 31.829 36.453 31.9875 36.4652 32.0444L36.4897 32.1459L37.1306 32.0972C38.2531 32.0078 38.5511 31.9387 39.8736 31.4634C40.3185 31.3009 40.5839 31.2237 41.0166 31.1221C41.09 31.1059 40.9757 31.244 40.588 31.634C40.2981 31.9225 40.0696 32.1703 40.0777 32.1784C40.1512 32.2475 40.6533 32.2881 41.3798 32.2881C42.9473 32.2881 43.5922 32.3816 44.5637 32.7432C45.0944 32.9382 46.2332 33.4988 46.4455 33.6695L46.5475 33.7507H46.1679C45.9271 33.7507 45.7475 33.7304 45.6781 33.6938C45.4822 33.5963 43.7269 33.0235 43.2943 32.9138C42.7187 32.7757 42.086 32.7472 41.4125 32.8325C41.1186 32.8732 40.3308 32.9179 39.596 32.9382C38.1878 32.9788 37.8653 33.0194 36.9959 33.2388C36.2611 33.4257 35.559 33.5435 33.8936 33.7548C32.7997 33.8929 32.5262 33.9417 32.4282 34.0067C32.3629 34.0514 32.2445 34.1123 32.1629 34.1407C32.0445 34.1814 32.0119 34.2139 32.0037 34.3114C31.9915 34.4292 31.9955 34.4292 32.2445 34.4576C32.7997 34.5145 33.3589 34.4901 35.0978 34.3398C35.5141 34.3033 36.1183 34.2789 36.4448 34.287L37.0367 34.2992L36.7918 34.4251C36.2897 34.6892 35.9223 34.7339 33.812 34.7867C32.9385 34.8111 32.4609 34.8436 32.1058 34.9127C32.0119 34.933 31.9996 34.9452 32.0404 34.998C32.069 35.0305 32.1833 35.1036 32.2976 35.1605C32.7221 35.3758 32.7384 35.3758 33.7834 35.3352C35.1672 35.2783 35.6897 35.2296 36.4489 35.0914C36.8163 35.0224 37.2 34.9695 37.302 34.9695L37.4857 34.9736L37.2612 35.0914C36.9877 35.2336 36.9469 35.2458 35.3223 35.6724C34.6039 35.8634 33.8283 36.0746 33.5997 36.1478C33.1997 36.2737 33.1793 36.2859 33.1793 36.3915C33.1793 36.5053 33.1834 36.5053 33.4773 36.5337C33.6895 36.554 33.91 36.5378 34.2814 36.4768C34.9549 36.3671 35.3223 36.2574 36.302 35.8715C37.1347 35.5424 37.4245 35.4571 37.7143 35.4571H37.8816L37.7592 35.5587C37.6898 35.6155 37.6286 35.6602 37.6163 35.6602C37.6041 35.6602 37.502 35.7252 37.3877 35.8024C37.2694 35.8796 36.4326 36.3184 35.5223 36.7815C34.1998 37.4519 33.861 37.6388 33.8283 37.72C33.7467 37.9313 33.7589 37.9354 34.3794 37.7891C35.559 37.5128 35.8652 37.4031 36.6734 36.9522C36.9918 36.7775 37.2653 36.6353 37.2857 36.6353C37.302 36.6353 37.4612 36.5703 37.6367 36.485C37.8123 36.4037 37.9674 36.3509 37.9837 36.3631C38.0204 36.4037 37.8367 36.5906 37.6898 36.6637C37.6245 36.6962 37.4857 36.8019 37.3837 36.8994C37.2816 36.9928 36.8612 37.3381 36.4448 37.6591L35.6897 38.2482L35.6162 38.5163C35.5795 38.6626 35.5468 38.8739 35.5468 38.9876C35.5468 39.1745 35.555 39.1908 35.6203 39.1583C35.657 39.138 35.8325 39.0567 36.0081 38.9754C36.1877 38.8942 36.9306 38.4229 37.702 37.9029C40.0696 36.3021 41.8411 35.1321 42.0534 35.0183C42.2411 34.9249 42.3146 34.9127 42.7922 34.9005L43.3228 34.8883L43.1391 34.9614C42.8534 35.0711 42.7718 35.1199 41.4166 36.034C38.747 37.8297 37.1796 38.9633 36.5958 39.5158C35.8611 40.2146 35.3876 41.0637 35.2202 41.9778C35.0937 42.6807 34.9713 43.9564 34.9468 44.7811L34.9223 45.6749L35.0366 45.5734C35.2202 45.4027 35.3672 45.0615 35.4407 44.6186C35.5999 43.6801 35.804 42.7335 35.8938 42.5263C35.9468 42.4044 35.9999 42.2541 36.0121 42.1891C36.0407 42.0631 36.1591 42.0388 36.1591 42.1607C36.1591 42.2053 36.0856 42.9204 35.9958 43.7492C35.906 44.578 35.8325 45.3702 35.8325 45.5043V45.7521L36.057 45.5328C36.3346 45.2605 36.3387 45.2443 36.7918 43.3998C36.9836 42.6157 37.1551 41.9413 37.1755 41.8966C37.249 41.7463 37.2245 42.6076 37.1428 43.1967C36.9918 44.2733 36.9918 44.3058 37.1347 44.5171C37.2041 44.6186 37.2612 44.7324 37.2612 44.7771C37.2612 44.838 37.2816 44.8461 37.3755 44.8218C37.5224 44.7852 37.5551 44.7446 37.6776 44.4358C37.7755 44.2002 37.7918 44.0661 37.849 43.1763C37.8857 42.6279 37.9225 41.9616 37.9388 41.6934C37.9674 41.1409 38.0204 40.9256 38.2164 40.6249C38.3715 40.3812 38.3347 40.3365 38.6123 41.0475C38.7062 41.2912 38.8246 41.539 38.8776 41.6C38.9266 41.665 38.9838 41.7544 38.996 41.7991C39.0327 41.9047 39.0776 41.8478 39.1389 41.6325C39.1838 41.47 39.3022 40.1536 39.3022 39.8246C39.3022 39.6174 39.3062 39.6052 39.4573 39.5239C39.8246 39.3289 40.1226 39.1867 40.1389 39.203C40.1512 39.2151 40.1716 39.528 40.1879 39.9018C40.2002 40.2715 40.2247 40.5721 40.2369 40.568C40.2492 40.5599 40.3798 40.4949 40.5186 40.4177C40.8574 40.2349 40.9553 40.0643 41.2247 39.2151C41.3349 38.8576 41.4533 38.5123 41.4778 38.4473L41.5309 38.3335L41.6901 38.6017C41.7758 38.752 41.9105 38.947 41.988 39.0364C42.1268 39.1948 42.1309 39.1989 42.2126 39.1258C42.3432 39.012 42.6412 38.5285 42.8657 38.0816C42.9759 37.8541 43.1024 37.6307 43.1514 37.5819C43.1963 37.5332 43.3718 37.4316 43.5433 37.3625C43.9841 37.1797 44.2657 37.0375 44.8495 36.6881C45.6536 36.2087 45.8577 36.1721 45.6822 36.5297C45.5393 36.8181 45.0454 37.3666 43.9555 38.4432C42.8371 39.5442 42.5269 39.8896 42.5269 40.0074C42.5269 40.1374 42.6983 40.2105 43.1024 40.2552C43.5473 40.2999 43.678 40.3446 43.6453 40.434C43.6086 40.5234 43.0493 40.8809 42.3064 41.2831C41.2533 41.8559 40.9349 42.0916 40.9349 42.311C40.9349 42.441 41.0696 42.4857 41.4411 42.4857C41.935 42.4857 41.9431 42.6157 41.4737 43.0016C41.3472 43.1113 41.041 43.3267 40.8002 43.4811C39.245 44.4886 39.1144 44.5861 39.1919 44.6633C39.2205 44.6918 39.3797 44.6593 39.8124 44.5414C40.1798 44.4399 40.1553 44.5333 39.6695 45.0818C39.5103 45.2605 39.245 45.5084 39.0776 45.6343C38.7429 45.8862 38.6899 45.9512 38.6899 46.1462C38.6899 46.2722 38.6899 46.2762 38.8572 46.2519C39.1511 46.2112 39.8818 45.744 40.6696 45.0858C40.939 44.8624 41.037 44.8258 40.9961 44.9721C40.9063 45.2605 40.7635 45.5084 40.5186 45.7887C39.7348 46.6947 39.3226 47.5479 39.5062 47.8892C39.5634 47.9948 39.7716 48.0598 39.9063 48.007C40.0736 47.946 40.3022 47.7023 40.5349 47.3407C41.037 46.5647 41.1268 46.4388 41.2574 46.2925C41.4247 46.1097 41.5717 46.0853 41.5268 46.2519C41.5145 46.3128 41.3594 46.6744 41.1839 47.0563C40.7839 47.9217 40.69 48.1695 40.6778 48.4092C40.6696 48.588 40.6778 48.6001 40.7757 48.6123C41.0574 48.6448 41.4084 48.137 42.6085 45.9593C43.4575 44.4236 43.8453 43.7736 44.0698 43.5298C44.2984 43.2901 44.3351 43.4242 44.2739 44.2002C44.2372 44.6227 44.2372 44.7811 44.2739 44.8624C44.3719 45.0737 44.5637 44.9558 44.9393 44.4521C45.1923 44.1108 45.6046 43.412 46.3189 42.1241C46.6822 41.4659 47.0088 40.889 47.0414 40.8443C47.0945 40.7671 47.0986 40.7712 47.0986 40.9134C47.0986 41.4456 46.6863 42.6563 45.9026 44.4358C45.6903 44.9152 45.4985 45.3743 45.474 45.4515C45.4128 45.6303 45.4005 45.8253 45.4413 45.8903C45.4822 45.9553 45.625 45.9512 45.7516 45.8781C45.9108 45.7887 46.0332 45.8009 46.0781 45.9147C46.1271 46.0447 46.0781 46.325 45.8985 46.9791C45.6536 47.8567 45.572 48.4254 45.6699 48.5798C45.6985 48.6286 45.7189 48.6245 45.7924 48.5595C45.9352 48.4295 46.1598 48.0232 46.3638 47.5235C46.6047 46.9303 46.6251 46.9222 47.0823 47.3001C47.2578 47.4463 47.4333 47.5601 47.466 47.556C47.6333 47.5235 47.8905 46.3047 48.2619 43.7858C48.4089 42.7904 48.5436 41.9413 48.5558 41.8966C48.5722 41.8356 48.6048 41.9006 48.6742 42.12C48.7273 42.2988 48.8048 42.4532 48.8579 42.4938C49.1681 42.7498 49.8539 42.3029 50.3804 41.5106C50.6866 41.0475 50.8825 40.889 51.2825 40.7915C51.5234 40.7346 51.5969 40.7346 52.1724 40.7956C52.5194 40.8321 52.8582 40.8809 52.9276 40.9053C53.1112 40.9662 53.2051 40.8971 53.2827 40.6493C53.3153 40.5355 53.3439 40.3283 53.3439 40.1902C53.3439 39.467 52.7275 38.0532 52.3153 37.8338L52.1642 37.7566L51.9193 37.8744C51.7805 37.9394 51.6622 38.0207 51.6499 38.0532C51.6377 38.0898 51.556 38.1629 51.4703 38.2198C51.2785 38.3376 51.2336 38.4148 51.205 38.7032C51.1927 38.8292 51.1519 38.9551 51.1111 38.9998C50.9968 39.1258 50.6743 39.272 50.36 39.3452C50.0947 39.402 50.0621 39.402 49.8906 39.337C49.5763 39.2192 49.4375 38.947 49.3191 38.2279C49.2334 37.6916 49.1844 37.5007 49.0702 37.2772C48.9436 37.0212 48.8538 36.9684 48.4415 36.9116C47.8701 36.8344 47.8742 36.8344 47.7558 37.0375C47.6986 37.135 47.6333 37.2163 47.6088 37.2203C47.5272 37.2284 47.2129 36.5093 47.2741 36.4484C47.2823 36.4403 47.3435 36.4484 47.4088 36.4728C47.5843 36.5418 47.6905 36.4931 47.8497 36.2696C47.9313 36.1599 48.0129 36.0665 48.0374 36.0665C48.0578 36.0665 48.1681 36.1478 48.2783 36.2493C48.5109 36.4525 48.662 36.4972 49.0212 36.4565C49.4988 36.4078 49.5437 36.4768 49.7886 37.6469C49.9682 38.5042 50.0416 38.6789 50.2131 38.6992C50.3029 38.7114 50.3478 38.6748 50.4947 38.4757C50.5927 38.3457 50.7682 38.0491 50.8907 37.8216C51.0091 37.5941 51.1805 37.326 51.2703 37.2284C51.4009 37.0741 51.4662 37.0375 51.6622 36.9969C51.9765 36.9319 52.1642 36.8344 52.45 36.5703C52.5806 36.4484 52.7112 36.3509 52.7398 36.3509C52.7643 36.3509 52.8745 36.4443 52.9806 36.5581C53.1031 36.6922 53.1806 36.749 53.201 36.7165C53.2745 36.5987 53.0459 35.6643 52.7928 35.0467C52.6908 34.7989 52.6092 34.5551 52.6092 34.5023C52.6092 34.2301 52.9316 34.2017 53.8746 34.3804C54.8256 34.5633 54.9726 34.5267 54.6664 34.1895C54.5889 34.1001 54.5277 34.0067 54.5358 33.9823C54.544 33.9539 54.6256 33.901 54.7154 33.8604C55.1481 33.6613 55.1685 33.6288 54.9767 33.4135C54.8542 33.2713 54.393 33.0113 54.0256 32.8772C53.9195 32.8366 53.7848 32.7594 53.7276 32.7066C53.6337 32.6213 53.6215 32.5847 53.6378 32.3978C53.6582 32.1297 53.8337 31.8534 54.344 31.2724C55.7441 29.6758 56.4584 28.4041 56.9972 26.5596C57.2503 25.6942 57.1972 25.548 56.8258 26.0721C56.2788 26.844 56.0461 27.1081 55.9727 27.039C55.9318 26.9943 56.0461 26.6815 56.4543 25.6942C56.8748 24.6786 57.0054 24.2926 56.9646 24.187C56.9401 24.126 56.9237 24.126 56.8258 24.1788C56.5727 24.3088 56.2298 24.7517 55.793 25.5033C55.3073 26.3402 55.1971 26.4459 55.2297 26.0396C55.2542 25.7633 55.4257 25.3245 56.3033 23.3257C56.6543 22.5334 56.9482 21.8306 56.9646 21.7655C57.0013 21.5624 56.8707 21.6152 56.5727 21.9199C56.3237 22.1759 56.1931 22.3709 55.7686 23.1225C55.5359 23.5369 55.4869 23.5288 55.5236 23.0819C55.54 22.8828 55.5767 22.4928 55.6094 22.2125C55.7237 21.1968 55.6951 20.7905 55.5318 21.1033Z" fill="#323030"/>
<path d="M63.9973 25.7553C63.7687 25.9138 63.1524 26.4379 62.487 27.0432C62.136 27.3601 61.8992 27.5429 61.7319 27.6201C61.4216 27.7623 61.2624 27.8029 61.2624 27.7379C61.2624 27.6242 61.3971 27.4698 62.1605 26.7019C62.7034 26.1575 62.9809 25.8488 63.0013 25.7716C63.0299 25.6537 63.0258 25.6537 62.8911 25.6822C62.8136 25.6944 62.6625 25.7675 62.5482 25.8406C62.438 25.9178 62.2707 26.0235 62.1809 26.0803C62.0911 26.1372 61.7074 26.4622 61.3278 26.8076C60.4257 27.6242 58.8745 28.9487 58.2827 29.4077C57.4663 30.0456 56.8785 30.4112 55.9968 30.8378C55.5355 31.0613 55.1151 31.2766 55.0579 31.3132C55.0008 31.3538 54.911 31.3985 54.8539 31.4148C54.7967 31.431 54.7191 31.4716 54.6783 31.5082C54.6089 31.5691 54.613 31.5813 54.76 31.7276C54.9355 31.9063 54.9926 31.9145 55.6702 31.821C56.0621 31.7682 56.9887 31.5366 57.1683 31.4432C57.2091 31.4229 57.2907 31.3944 57.3561 31.3782C57.5071 31.3416 57.503 31.431 57.3397 31.687C57.2173 31.8779 57.2132 31.886 57.2826 31.9876C57.3193 32.0445 57.4622 32.1461 57.601 32.207C58.1275 32.4589 58.6133 32.4711 59.1603 32.2476C59.3399 32.1745 59.597 32.1095 59.7317 32.0973C59.9644 32.077 59.9726 32.081 59.9072 32.1461C59.8705 32.1867 59.7766 32.2557 59.6991 32.3045C59.6174 32.3492 59.4133 32.4873 59.2378 32.6011C59.0623 32.7189 58.8541 32.8286 58.7766 32.8448C58.6255 32.8733 58.1969 32.8164 57.1601 32.6376C56.3356 32.4914 55.4539 32.4304 55.0947 32.4914C54.9192 32.5198 54.813 32.5564 54.8253 32.5848C54.8334 32.6092 55.0049 32.727 55.2049 32.8448C55.4049 32.9586 55.6294 33.1211 55.7029 33.1983C55.8743 33.3893 55.8825 33.6452 55.7233 33.9702L55.6131 34.1937L55.7233 34.4009C55.858 34.6609 55.858 34.7056 55.7315 34.8559C55.511 35.1159 55.5519 35.2134 56.6989 37.1229C57.5316 38.5043 58.1235 39.585 58.3765 40.17C58.6868 40.8973 58.8745 41.6936 59.0378 42.9733C59.2052 44.2694 59.3154 44.8422 59.5072 45.411C59.6174 45.7279 60.0746 46.7152 60.2665 47.0361C60.5277 47.483 60.8665 47.7146 61.3522 47.7877L61.5441 47.8162L61.4461 47.4586C61.3237 46.9995 61.2992 46.9386 60.6379 45.4516C60.3318 44.7691 60.0624 44.1312 60.0379 44.0297C60.0134 43.9281 59.9971 43.7453 60.0052 43.6234L60.0175 43.3999L60.2297 43.8062C60.344 44.0297 60.7073 44.6878 61.0298 45.2688C61.5196 46.1464 61.6461 46.3373 61.7604 46.4064C61.838 46.4511 61.9686 46.5405 62.0502 46.6095C62.2788 46.7964 62.438 46.9142 62.4625 46.9142C62.5115 46.9142 62.4829 46.2398 62.4299 46.0285C62.3523 45.7441 62.2176 45.4963 61.838 44.9275C61.2053 43.9809 60.593 42.8961 60.5277 42.5996C60.4991 42.4817 60.4869 42.3192 60.495 42.2461L60.5073 42.1039L60.6706 42.368C60.7563 42.5102 60.9073 42.7296 61.0012 42.8515C61.091 42.9733 61.3767 43.3756 61.6298 43.7453C62.2217 44.6066 62.3156 44.7203 62.4054 44.7203C62.4584 44.7203 62.487 44.7569 62.4952 44.83C62.5033 44.9072 62.536 44.9478 62.5891 44.956C62.634 44.9641 62.7401 45.0372 62.8258 45.1185L62.9768 45.2647V44.9803C62.9768 44.8219 62.9564 44.6309 62.9279 44.5538C62.8585 44.3466 61.9972 42.8311 61.5931 42.2014C61.3971 41.9008 60.9359 41.2426 60.5685 40.7388C59.6174 39.4387 58.1684 37.2164 57.7969 36.481C57.7316 36.351 57.65 36.221 57.6132 36.1926C57.5561 36.1438 57.5561 36.1357 57.6132 36.0748C57.6908 36.0016 57.6908 36.0016 57.899 36.4038C58.1561 36.8995 58.8051 37.7161 59.4215 38.3093C60.2665 39.13 63.1197 41.3685 64.0341 41.9333C64.5361 42.242 64.6994 42.307 65.1525 42.3842C65.3566 42.4208 65.8301 42.5508 66.2015 42.6686C66.8302 42.8758 67.5118 43.0546 67.6547 43.0546C67.7527 43.0546 67.6996 42.884 67.4833 42.5142C67.3812 42.3355 67.3037 42.1852 67.3159 42.177C67.3241 42.1689 67.4833 42.2177 67.6669 42.2827C67.9649 42.3924 68.6099 42.498 68.6099 42.4371C68.6099 42.2908 68.2996 41.7748 68.0751 41.5554C67.9976 41.4782 67.6792 41.3198 67.1526 41.1004C65.8668 40.5682 65.5076 40.3691 65.6382 40.2635C65.7199 40.1985 65.9525 40.1335 66.2832 40.0888C66.8016 40.0156 66.8547 40.0035 66.8547 39.9669C66.8547 39.9263 66.6301 39.8572 65.6301 39.585C64.879 39.3859 64.1565 39.134 63.3646 38.7968C62.6462 38.4962 61.0379 37.7364 60.8175 37.5942C60.6502 37.4886 60.642 37.4764 60.7155 37.4358C60.8706 37.3464 61.6094 37.3952 62.2421 37.5292C62.5687 37.5983 63.0462 37.6999 63.3034 37.7567C64.0912 37.9193 64.728 37.8746 64.6137 37.6592C64.5933 37.6186 64.4463 37.517 64.2871 37.4277C64.1279 37.3383 63.9973 37.253 63.9973 37.2367C63.9973 37.1189 65.1403 37.0458 66.9608 37.0417C68.0262 37.0417 68.4221 37.0173 68.3854 36.9604C68.3486 36.8995 67.8139 36.7207 67.5486 36.6801C67.4057 36.6557 66.92 36.6192 66.4669 36.5948C64.8055 36.5095 64.1851 36.4485 63.9851 36.3429C63.8626 36.282 63.9402 36.2413 64.2708 36.1966C64.7851 36.1235 65.0015 36.1113 66.6138 36.026C67.4629 35.9813 68.2384 35.9285 68.3445 35.9082C68.7038 35.8391 68.6915 35.7132 68.316 35.6563C68.1976 35.636 67.5853 35.575 66.9567 35.5182C65.3117 35.3678 64.7974 35.2947 64.8831 35.2094C64.9035 35.1891 65.0994 35.1444 65.3239 35.1119C65.6831 35.0591 66.1485 35.0225 68.3364 34.8884C68.6915 34.8681 69.0181 34.8315 69.0589 34.8072C69.2303 34.7137 69.1283 34.5187 68.8629 34.4375C68.5976 34.3562 67.1934 34.344 66.5485 34.4212C65.8872 34.4984 63.8259 34.5512 63.6748 34.4943C63.5565 34.4496 63.8749 34.3562 65.5484 33.954C66.7608 33.6655 67.4302 33.4583 67.5812 33.3202L67.6914 33.2227L67.5935 33.1414C67.4629 33.0317 67.2302 33.0358 66.7322 33.1617C65.4464 33.4868 61.0992 33.9784 61.0992 33.7996C61.0992 33.7305 61.4135 33.6533 62.487 33.4461C64.1483 33.1252 65.3035 32.8327 65.3035 32.7311C65.3035 32.6661 64.9157 32.6905 63.4463 32.8367C61.5604 33.0236 60.3236 33.0805 60.3236 32.9789C60.3236 32.922 60.8012 32.7352 61.8217 32.3939C62.9279 32.0201 63.532 31.7845 63.8218 31.6138C64.0626 31.4757 64.2831 31.2401 64.2831 31.1222C64.2831 30.9272 63.932 30.9475 62.9319 31.1954C62.3523 31.3376 61.9155 31.3944 61.9155 31.3335C61.9155 31.3172 61.9441 31.2563 61.9727 31.1954C62.0135 31.1182 62.0992 31.0572 62.2299 31.0085C63.0054 30.72 64.1239 30.1756 64.4586 29.9197C64.6872 29.749 64.8586 29.5093 64.8259 29.4118C64.7892 29.3184 64.5035 29.3631 63.4463 29.6271C62.8625 29.7734 62.3727 29.8871 62.3523 29.879C62.336 29.875 62.7197 29.6596 63.2095 29.4077C64.8627 28.5464 65.3566 28.2539 65.6342 27.9776C65.8138 27.7989 65.8301 27.7217 65.7036 27.6526C65.5566 27.5714 65.1852 27.6364 64.7198 27.8233C64.479 27.9167 64.2708 27.9817 64.2586 27.9695C64.2055 27.9167 64.3688 27.7379 64.8627 27.2951C65.1403 27.0513 65.4913 26.7019 65.6464 26.5232C65.8015 26.3444 65.9607 26.186 66.0015 26.1738C66.0832 26.1453 66.1811 25.9991 66.1444 25.9625C66.1117 25.93 65.7525 26.1088 64.528 26.771C63.1932 27.4942 62.936 27.6282 62.936 27.5917C62.936 27.547 63.1075 27.3195 63.5687 26.7629C64.0912 26.1291 64.3647 25.7553 64.3647 25.6781C64.3647 25.5847 64.1892 25.6212 63.9973 25.7553Z" fill="#323030"/>
<path d="M53.4008 34.9045C53.3886 34.9411 53.4171 35.063 53.4661 35.1767C53.5151 35.2905 53.5804 35.5058 53.6131 35.6561C53.6947 36.034 53.7723 37.4356 53.7355 37.8663C53.707 38.1994 53.6988 38.2238 53.6172 38.2116C53.5192 38.1994 53.009 37.6103 52.8049 37.2772C52.764 37.2162 52.7151 37.1634 52.6906 37.1634C52.5885 37.1634 52.6783 37.4153 53.009 38.0653C53.8335 39.6823 54.0498 40.5883 53.76 41.2018C53.6947 41.3399 53.5723 41.5187 53.4865 41.5999C53.3518 41.734 53.3069 41.7543 53.1355 41.7543C52.9314 41.7543 52.413 41.6284 51.813 41.4334L51.4497 41.3156L51.3803 41.4618C51.3435 41.5471 51.2741 41.6487 51.2211 41.6934C50.9966 41.8884 50.8945 42.0834 50.8945 42.3109C50.8945 42.8797 51.6293 45.6587 51.8375 45.878C51.915 45.9552 51.915 45.9512 51.915 45.6912C51.915 45.5449 51.8701 45.033 51.813 44.5576C51.7109 43.7207 51.6905 43.2576 51.7681 43.4404C51.9477 43.8832 52.0742 44.2692 52.3069 45.0655C52.6987 46.4103 52.8375 46.784 53.009 46.9547C53.0865 47.0319 53.1926 47.1619 53.2457 47.2472C53.4008 47.491 53.4253 47.4747 53.4253 47.1456C53.4253 46.9547 53.3151 46.2396 53.1192 45.1305C52.9518 44.1879 52.813 43.3673 52.813 43.3104C52.813 43.1154 52.8824 43.2657 52.9885 43.7045C53.1845 44.4926 53.7519 46.1868 53.9437 46.5565C54.0458 46.7556 54.1437 46.9141 54.1641 46.9141C54.1845 46.9141 54.2009 46.6947 54.2009 46.4265C54.2009 45.9918 54.1764 45.8252 53.956 44.7811C53.8172 44.1229 53.7151 43.5298 53.7151 43.4079C53.7192 43.2901 53.7315 43.2332 53.7396 43.2738C53.7519 43.3185 53.9886 44.001 54.2703 44.7973C54.5519 45.5937 54.8213 46.3534 54.8621 46.4875C54.907 46.6215 54.9724 46.8003 55.0091 46.8856C55.0703 47.0319 55.0744 47.0359 55.1438 46.9669C55.2418 46.8653 55.3846 46.3575 55.3846 46.1056C55.3846 45.9877 55.2826 45.4596 55.1601 44.9274C55.0377 44.3992 54.907 43.7857 54.8744 43.5663C54.7928 43.0138 54.6866 41.5106 54.7315 41.5106C54.7601 41.5106 54.8866 41.994 55.2418 43.4607C55.8989 46.1706 55.9847 46.4631 56.2622 46.8531C56.3439 46.9628 56.4663 47.1456 56.5398 47.2594L56.6704 47.4625L56.6827 47.2066C56.6908 47.0441 56.6541 46.7515 56.5888 46.4225C56.5276 46.1299 56.4908 45.8821 56.499 45.8699C56.5398 45.8334 56.85 46.3209 57.1154 46.8328C57.2582 47.1131 57.4256 47.3853 57.4827 47.4382L57.5889 47.5357V47.3528C57.5889 47.0034 57.4256 46.2031 57.0909 44.9436C56.6174 43.1357 56.3235 42.3272 55.6908 41.0637C55.5724 40.828 55.3724 40.4055 55.2458 40.1211C55.0254 39.6254 55.0173 39.5889 55.0213 39.2679V38.9307L55.2295 39.337C55.3438 39.5604 55.6867 40.2552 55.9887 40.8808C57.2174 43.4241 57.5521 44.2936 57.997 46.0649C58.246 47.0563 58.393 47.4991 58.5195 47.6494C58.6379 47.7957 58.7114 47.7957 58.7971 47.6657C58.94 47.4463 58.7808 46.6703 58.2256 44.842C57.6991 43.1072 57.2745 41.9372 56.8051 40.9012C56.3112 39.8123 55.9438 38.817 55.7765 38.0978C55.7438 37.9556 55.7234 37.8297 55.7316 37.8216C55.7724 37.7809 56.0377 38.301 56.8215 39.9464C57.2909 40.9296 57.7603 41.8762 57.8664 42.055C58.0787 42.4084 58.2787 42.6075 58.4175 42.6075C58.6379 42.6035 58.7032 42.4369 58.6502 42.0103C58.5522 41.2424 58.3603 40.824 57.1072 38.626C55.8826 36.4809 55.1071 35.5708 54.058 35.0467C53.6702 34.8557 53.4376 34.8029 53.4008 34.9045Z" fill="#323030"/>
<path d="M49.2739 43.0504C48.7066 43.4729 48.527 43.7086 48.527 44.0255C48.527 44.2936 48.6208 44.5008 48.8739 44.7893C48.976 44.903 49.0576 45.0046 49.0576 45.0127C49.0576 45.0208 48.98 45.0208 48.8821 45.0127C48.7555 45.0005 48.6821 45.0208 48.6086 45.0777C48.5147 45.1508 48.5065 45.1874 48.5147 45.4352C48.527 45.8171 48.6535 46.2072 48.8331 46.4144C48.9107 46.5078 48.976 46.5891 48.976 46.6013C48.976 46.6094 48.9025 46.6297 48.8168 46.6459C48.7147 46.6622 48.629 46.7069 48.5923 46.7597C48.5025 46.8857 48.5106 47.1904 48.6086 47.5844C48.6943 47.9176 48.776 48.0801 48.878 48.1207C48.9719 48.1573 48.9433 48.2061 48.8372 48.1857C48.6004 48.141 48.4657 48.5311 48.4943 49.1649C48.5147 49.5671 48.5923 49.7743 48.7882 49.9571C48.9311 50.0912 48.9229 50.1237 48.7351 50.1237C48.4535 50.1237 48.3637 50.2821 48.3637 50.7737C48.3637 51.2938 48.4249 51.4847 48.6617 51.7366L48.8658 51.9519H48.6821C48.5841 51.9519 48.4698 51.9763 48.429 52.0047C48.3188 52.086 48.2861 52.3298 48.3269 52.7523C48.3678 53.2073 48.4249 53.4348 48.531 53.5811C48.6331 53.7233 48.629 53.7395 48.5065 53.7395C48.2902 53.7395 48.2045 54.1133 48.278 54.7756C48.3106 55.0518 48.3555 55.2468 48.4249 55.389C48.4821 55.5028 48.527 55.6044 48.527 55.6165C48.527 55.6287 48.4821 55.6531 48.4249 55.6653C48.2331 55.7141 48.1841 55.8522 48.2126 56.2707C48.2412 56.6851 48.331 57.0304 48.4535 57.2051C48.531 57.3107 48.531 57.3148 48.4576 57.3392C48.1677 57.4245 48.0535 57.5951 48.0126 57.9933C47.9677 58.3995 48.0086 58.5133 48.3106 58.8261L48.58 59.1024H48.3106C47.9147 59.1024 47.8943 59.143 47.9269 59.8662C47.9432 60.1709 47.9841 60.5488 48.0167 60.7072C48.0494 60.8616 48.0779 60.9957 48.0779 61.0038C48.0779 61.0078 48.033 61.0322 47.98 61.0525C47.8412 61.1054 47.7922 61.3044 47.7922 61.8488C47.7922 62.4704 47.8085 62.5395 48.0004 62.6492C48.1922 62.7548 48.2004 62.7995 48.0371 62.7995C47.8494 62.7995 47.7106 62.8848 47.6249 63.0514C47.5106 63.2749 47.4412 63.9737 47.4942 64.3596C47.5351 64.6522 47.5514 64.6806 47.7677 64.9203L47.9963 65.1762L47.7228 65.2209C47.5024 65.2534 47.433 65.2859 47.3432 65.3875C47.1799 65.5703 47.1309 65.8425 47.1799 66.3179C47.2248 66.7567 47.2371 66.7892 47.4412 66.9801C47.5228 67.0573 47.5881 67.1548 47.5881 67.1914C47.5881 67.2564 47.5718 67.2523 47.3799 67.1751C47.1963 67.0979 47.1636 67.0939 47.0697 67.1467C46.9146 67.2361 46.8248 67.3701 46.6901 67.7358C46.5105 68.2071 46.4656 68.5158 46.5268 68.8246C46.7105 69.7672 47.6249 70.1166 49.0005 69.7672C49.4291 69.6575 51.1557 69.174 51.2496 69.1374C51.4047 69.0724 51.4414 68.8327 51.4455 67.8374C51.4455 66.907 51.421 66.6023 51.3312 66.4845C51.2904 66.4235 51.2455 66.4235 51.0047 66.4601C50.8496 66.4845 50.7149 66.4926 50.7026 66.4804C50.6536 66.4316 50.7802 66.2691 50.9557 66.1594C51.2088 65.9969 51.2986 65.8344 51.3884 65.3306C51.4292 65.095 51.4659 64.8797 51.4659 64.8594C51.4659 64.8187 50.7638 64.8472 50.6414 64.8919C50.5312 64.9365 50.6006 64.7618 50.7353 64.6562C51.1843 64.3149 51.1884 64.3068 51.2782 63.7543C51.3149 63.5308 51.3516 63.2952 51.3639 63.2302C51.3843 63.1164 51.3802 63.1164 51.2333 63.1367C51.1475 63.153 50.9271 63.1733 50.7434 63.1896C50.4618 63.2139 50.4046 63.2058 50.4046 63.1611C50.4046 63.088 51.0986 62.3526 51.1679 62.3526C51.2373 62.3526 51.3026 62.0885 51.3026 61.8041C51.3026 61.4466 51.2904 61.4385 50.919 61.4954C50.7475 61.5198 50.5802 61.5401 50.5475 61.5401C50.421 61.5401 50.4944 61.4182 50.723 61.2475C50.8496 61.15 50.9883 61.0078 51.0251 60.9266C51.2006 60.5772 51.1475 59.919 50.9353 59.7037C50.8332 59.6062 50.7883 59.5899 50.5802 59.5899L50.3434 59.5859L50.4904 59.4559C50.5761 59.3868 50.7149 59.2771 50.8047 59.2162C50.9965 59.0902 51.0577 58.9318 51.0577 58.5621C51.0577 58.1558 50.9639 58.0258 50.6006 57.9486C50.4454 57.912 50.4577 57.8267 50.6495 57.5992C50.8781 57.327 50.9843 57.0629 51.0088 56.7135C51.0332 56.3438 50.9434 56.0838 50.7557 55.97C50.6863 55.9294 50.5965 55.8928 50.5557 55.8928C50.425 55.8928 50.4332 55.7791 50.5842 55.6044C50.7679 55.385 50.8291 55.1168 50.8332 54.5033C50.8332 54.0849 50.8251 54.0158 50.7475 53.9142C50.6985 53.8533 50.621 53.7964 50.572 53.7883C50.5271 53.7802 50.4863 53.768 50.4863 53.7599C50.4863 53.7558 50.5393 53.6502 50.6006 53.5283C50.7312 53.2845 50.8332 52.7523 50.7965 52.541C50.7598 52.3582 50.6781 52.3054 50.4536 52.3095L50.2618 52.3176L50.4944 52.1023C50.621 51.9885 50.7557 51.83 50.7924 51.7529C50.8985 51.5416 50.9149 51.2288 50.8373 50.8834C50.7638 50.5503 50.6495 50.3674 50.523 50.3674C50.4495 50.3674 50.4536 50.3553 50.5557 50.2699C50.6659 50.1724 50.67 50.1602 50.6659 49.7702C50.6618 49.3396 50.5924 49.0795 50.4373 48.917C50.3883 48.8642 50.3148 48.8236 50.274 48.8236C50.1801 48.8236 50.1801 48.7627 50.274 48.6286C50.4373 48.3929 50.5679 47.881 50.5679 47.4788C50.5679 47.17 50.5189 47.0807 50.323 47.04C50.1679 47.0075 50.172 47.0197 50.2414 46.6703C50.3107 46.3412 50.3393 44.2123 50.2822 43.7654C50.225 43.2982 50.1107 42.961 49.9842 42.8716C49.8046 42.7457 49.6209 42.7904 49.2739 43.0504Z" fill="#323030"/>
<path d="M7.02993 37.5961L9.34217 38.1069L8.41367 42.3096L6.10143 41.7987C4.1329 41.3638 4.48969 40.7872 3.88038 40.6526C3.58354 40.587 3.27834 40.7817 3.1955 41.1567L2.52588 44.1876C2.44304 44.5626 2.63779 44.8678 2.93463 44.9333C3.54394 45.068 3.46328 44.3947 5.43181 44.8296L11.0406 46.0688C13.0091 46.5037 12.6523 47.0803 13.2616 47.2149C13.5584 47.2805 13.8636 47.0857 13.9465 46.7108L14.6161 43.6799C14.6989 43.3049 14.5042 42.9997 14.2074 42.9341C13.598 42.7995 13.6787 43.4728 11.7102 43.0379L9.41356 42.5305L10.3421 38.3278L12.6387 38.8352C14.6072 39.2701 14.2504 39.8467 14.8597 39.9813C15.1566 40.0469 15.4618 39.8522 15.5446 39.4772L16.2142 36.4463C16.2971 36.0713 16.1023 35.7661 15.8055 35.7006C15.1962 35.5659 15.2768 36.2392 13.3083 35.8043L7.69955 34.5651C5.73102 34.1302 6.08781 33.5536 5.4785 33.419C5.18166 33.3534 4.87646 33.5482 4.79362 33.9231L4.124 36.954C4.04116 37.329 4.23591 37.6342 4.53275 37.6998C5.14205 37.8344 5.0614 37.1611 7.02993 37.5961Z" fill="#323030"/>
<path d="M16.4784 22.0549C16.8735 21.2545 18.5776 21.2884 20.3066 22.1259C22.0356 22.9634 23.1311 24.2897 22.7465 25.078C22.3618 25.8662 20.6577 25.8323 18.9288 24.9948C17.1998 24.1574 16.0938 22.8431 16.4784 22.0549ZM16.6899 26.9513C18.4702 28.4884 21.2184 28.2189 22.8391 26.3417C24.4494 24.4767 24.3152 21.7185 22.535 20.1815C20.7547 18.6444 18.0065 18.914 16.3962 20.779C14.7755 22.6562 14.9097 25.4143 16.6899 26.9513Z" fill="#323030"/>
<path d="M32.6004 15.8538L28.194 7.68675C28.0648 7.44737 27.7613 7.3566 27.5219 7.48575C26.7897 7.88081 26.9206 8.86466 25.9771 9.37369C25.7518 9.49525 25.6729 9.71963 25.7793 9.91676C25.9844 10.297 26.2886 9.95102 26.9648 11.2042L30.1784 17.1606C30.847 18.3997 30.3909 18.4641 30.596 18.8442C30.6947 19.0273 30.9332 19.0986 31.1585 18.9771L33.5946 17.6627C33.8058 17.5488 33.8771 17.3103 33.7783 17.1272C33.5732 16.7471 33.269 17.093 32.6004 15.8538Z" fill="#323030"/>
<path d="M40.0123 6.59512C40.7487 6.44297 41.2368 5.72129 41.0814 4.96917C40.9292 4.23273 40.1919 3.74788 39.4555 3.90003C38.7033 4.05542 38.2342 4.78953 38.3863 5.52597C38.5417 6.27809 39.2601 6.7505 40.0123 6.59512ZM39.8797 14.8895C39.9218 15.0932 40.1297 15.2299 40.3648 15.1814L43.0755 14.6213C43.3262 14.5695 43.463 14.3616 43.4209 14.1579C43.3335 13.7348 42.9428 13.9789 42.6579 12.6L41.5573 7.27253C41.5022 7.00616 41.2375 6.83211 40.9712 6.88714C40.1564 7.05548 39.9994 8.0355 38.9339 8.25563C38.6989 8.30419 38.5589 8.49649 38.6042 8.71586C38.6916 9.13892 39.0823 8.89483 39.3672 10.2737L39.9628 13.1568C40.2477 14.5357 39.7923 14.4664 39.8797 14.8895Z" fill="#323030"/>
<path d="M56.276 8.77715L55.6384 12.726C55.465 13.8001 54.8331 14.2005 54.2487 14.1061C53.1746 13.9327 52.7957 12.3643 53.1171 10.3741C53.4486 8.32066 54.2839 7.06171 55.2475 7.21727C55.9425 7.32949 56.4188 7.89261 56.276 8.77715ZM50.3055 9.92012C49.8949 12.4632 51.6464 14.4639 53.684 14.7929C54.4106 14.9102 55.0353 14.6545 55.3757 14.3529L55.3579 14.4635C55.3298 14.6373 55.4465 14.8182 55.636 14.8488L58.0211 15.2339C58.2739 15.2747 58.4757 15.129 58.5088 14.9236C58.5777 14.4972 58.1257 14.5863 58.3501 13.1963L59.8293 4.03489C59.8726 3.76637 59.6872 3.50953 59.4187 3.46618C58.5815 3.33101 58.1019 4.19359 57.0278 4.02017C56.7909 3.98192 56.5916 4.11182 56.5559 4.33296C56.4871 4.75943 56.9391 4.67034 56.7146 6.06034L56.5591 7.02386C56.2921 6.77006 55.9253 6.53256 55.3882 6.44585C52.9557 6.05311 50.7186 7.36125 50.3055 9.92012Z" fill="#323030"/>
<path d="M71.47 20.9389C71.218 20.8258 71.2729 20.631 71.4348 20.3928L73.1249 17.9045C74.3115 16.1574 73.8193 14.0629 71.8207 12.7054C70.3912 11.7345 68.7873 11.9603 68.2658 12.728C67.9692 13.1648 68.1605 13.6235 68.4781 13.8393C68.809 14.064 69.2563 14.1744 69.5979 13.6714C70.0114 13.0626 70.6745 12.8553 71.3892 13.3408C71.9054 13.6914 72.0073 14.2248 71.7466 14.6086C71.3061 15.2572 70.4355 15.3428 69.2081 15.1281C67.9585 14.9176 66.1632 14.6846 65.3092 15.942C64.581 17.0141 64.8145 18.2365 65.8866 18.9647C66.7601 19.558 67.5323 19.5603 68.1244 19.3435C68.2 19.3175 68.2582 19.2603 68.3032 19.1941C68.4111 19.0353 68.2929 18.839 68.0976 18.8418C67.2366 18.8565 67.2758 17.9161 67.8104 17.1574C68.197 16.5883 68.8535 16.1058 69.8299 16.092C70.3671 16.07 70.7889 16.047 71.118 15.9611L69.0863 18.9524C68.5289 19.773 68.8496 20.6678 69.6305 21.1982C70.4114 21.7286 71.3561 21.79 71.6078 21.4194C71.7427 21.2209 71.6823 21.0251 71.47 20.9389Z" fill="#323030"/>
<path d="M79.6597 32.7486L81.6825 32.3106C81.9152 32.2612 82.1289 31.998 81.9443 31.6983C81.8771 31.5893 81.7775 31.5191 81.6538 31.5014L80.0394 31.1992C79.7396 31.1396 79.1809 30.9952 78.9123 30.5593L78.1738 29.3605L85.7062 29.5686C86.1832 29.5191 86.446 29.0002 86.1942 28.5915L83.3241 23.9326C83.2402 23.7964 83.0693 23.7325 82.9131 23.7536L80.8903 24.1916C80.666 24.2546 80.4439 24.5042 80.6286 24.8039C80.6957 24.9129 80.7953 24.9831 80.919 25.0008L82.5334 25.303C83.0261 25.4317 83.4171 25.5478 83.6605 25.9429L84.1892 26.8011L76.6295 26.6098C76.1663 26.6509 75.917 27.1615 76.1604 27.5565L79.2487 32.5696C79.3326 32.7058 79.5035 32.7697 79.6597 32.7486Z" fill="#323030"/>
<path d="M90.119 42.3579C90.2989 43.5929 88.0192 44.8143 87.1734 43.3368C86.8027 42.6794 86.5115 42.1236 86.0109 41.9055C87.4956 41.2203 89.9506 41.2021 90.119 42.3579ZM86.0977 38.9501C83.7703 39.2892 82.1745 41.5428 82.5297 43.9811C82.8019 45.8493 84.0634 47.0722 85.0872 47.4405C85.1891 47.4741 85.3656 47.4646 85.4873 47.3013C85.5414 47.2288 85.6358 46.9887 85.3842 46.8151C85.2414 46.7228 84.4481 46.2724 84.1505 45.0061C83.9214 43.9885 84.2586 43.1956 84.9018 42.6168C86.8023 40.9009 86.3073 47.6023 88.9561 46.4726C90.2805 45.9077 91.135 44.0047 90.879 42.2472C90.5376 39.9039 88.4251 38.611 86.0977 38.9501Z" fill="#323030"/>
<defs>
<linearGradient id="paint0_linear_153_316" x1="20" y1="12" x2="20" y2="3.2753e-07" gradientUnits="userSpaceOnUse">
<stop stop-color="#B49A6F"/>
<stop offset="0.289348" stop-color="#CAAE7C"/>
<stop offset="0.677551" stop-color="#F1D497"/>
<stop offset="1" stop-color="#F6DFB0"/>
</linearGradient>
<linearGradient id="paint1_linear_153_316" x1="23" y1="0" x2="23" y2="6" gradientUnits="userSpaceOnUse">
<stop stop-color="#074977"/>
<stop offset="0.486266" stop-color="#1493B9"/>
<stop offset="0.767159" stop-color="#34BFD3"/>
<stop offset="1" stop-color="#41CFDE"/>
</linearGradient>
<linearGradient id="paint2_linear_153_316" x1="24" y1="0" x2="24" y2="28" gradientUnits="userSpaceOnUse">
<stop stop-color="#EB737A"/>
<stop offset="0.35981" stop-color="#EB737A"/>
<stop offset="0.834872" stop-color="#E3DE5B"/>
<stop offset="1" stop-color="#D59720"/>
</linearGradient>
<clipPath id="clip0_153_316">
<rect x="25" y="32" width="48" height="48" rx="24" fill="white"/>
</clipPath>
</defs>
</svg>
