<svg width="24" height="24" viewBox="0 0 24 24" fill="none" xmlns="http://www.w3.org/2000/svg">
<path d="M21.9 10.6C21.8 10.5 21.8 10.4 21.7 10.3L19.7 8.3C19.3 7.9 18.7 7.9 18.3 8.3C17.9 8.7 17.9 9.3 18.3 9.7L18.6 10H16C15.4 10 15 10.4 15 11C15 11.6 15.4 12 16 12H18.6L18.3 12.3C17.9 12.7 17.9 13.3 18.3 13.7C18.5 13.9 18.8 14 19 14C19.2 14 19.5 13.9 19.7 13.7L21.7 11.7C21.8 11.6 21.9 11.5 21.9 11.4C22 11.1 22 10.9 21.9 10.6Z" fill="#EB737A"/>
<path d="M17 14C16.4 14 16 14.4 16 15V16C16 16.6 15.6 17 15 17H14V8.4C14 7.1 13.2 6 12.1 5.6L10.5 5H15C15.6 5 16 5.4 16 6V7C16 7.6 16.4 8 17 8C17.6 8 18 7.6 18 7V6C18 4.3 16.7 3 15 3H5C4.9 3 4.8 3 4.7 3.1C4.6 3.1 4.5 3.2 4.5 3.2C4.5 3.2 4.5 3.2 4.4 3.3C4.3 3.3 4.2 3.4 4.2 3.5C4.2 3.5 4.2 3.5 4.2 3.6C4.1 3.6 4 3.7 4 3.8C4 3.8 4 3.8 4 3.9V4V18C4 18.4 4.3 18.8 4.6 18.9L11.2 21.4C11.4 21.5 11.7 21.5 11.9 21.5C12.3 21.5 12.7 21.4 13 21.1C13.5 20.7 13.9 20.1 13.9 19.5V19H14.9C16.6 19 17.9 17.7 17.9 16V15C18 14.5 17.6 14 17 14ZM6 17.3V5.4L11.3 7.4C11.7 7.6 12 8 12 8.4V18V19.5L6 17.3Z" fill="#EB737A"/>
</svg>
