<svg width="25" height="32" viewBox="0 0 25 32" fill="none" xmlns="http://www.w3.org/2000/svg">
<g clip-path="url(#clip0_303_96)">
<mask id="mask0_303_96" style="mask-type:luminance" maskUnits="userSpaceOnUse" x="0" y="7" width="25" height="25">
<path d="M24.4211 19.8096C24.4211 13.077 18.9542 7.61914 12.2105 7.61914C5.46684 7.61914 0 13.077 0 19.8096C0 26.5422 5.46684 32.0001 12.2105 32.0001C18.9542 32.0001 24.4211 26.5422 24.4211 19.8096Z" fill="white"/>
</mask>
<g mask="url(#mask0_303_96)">
<path d="M24.4211 19.8096C24.4211 13.077 18.9542 7.61914 12.2105 7.61914C5.46684 7.61914 0 13.077 0 19.8096C0 26.5422 5.46684 32.0001 12.2105 32.0001C18.9542 32.0001 24.4211 26.5422 24.4211 19.8096Z" fill="#BDBDBD"/>
<path d="M22.386 25.9048H2.03516V32H22.386V25.9048Z" fill="url(#paint0_linear_303_96)"/>
<path d="M23.4035 24.8889H1.01758V25.9048H23.4035V24.8889Z" fill="#FAFCFC"/>
<path d="M23.9123 21.8413H0.508789V24.8889H23.9123V21.8413Z" fill="url(#paint1_linear_303_96)"/>
<path d="M24.4211 7.61914H0V21.8414H24.4211V7.61914Z" fill="url(#paint2_linear_303_96)"/>
</g>
<path d="M24.1662 19.8096C24.1662 13.2172 18.8132 7.87305 12.21 7.87305C5.60685 7.87305 0.253906 13.2172 0.253906 19.8096C0.253906 26.4019 5.60685 31.7461 12.21 31.7461C18.8132 31.7461 24.1662 26.4019 24.1662 19.8096Z" stroke="#FCFCFC"/>
<path d="M15.5338 2.08417C15.4819 2.18735 15.3822 2.49071 15.241 2.96947C15.0707 3.55554 15.0022 3.76603 14.9773 3.79286C14.942 3.82587 14.9731 3.40283 15.0417 2.9055C15.1123 2.40816 15.1247 2.13576 15.077 2.19767C15.0624 2.21831 15.0167 2.24926 14.9731 2.26577C14.9233 2.28641 14.8983 2.31117 14.8983 2.338C14.8983 2.35863 14.888 2.3834 14.8776 2.38959C14.8319 2.41848 14.6679 2.79612 14.3314 3.65666C14.3044 3.72682 14.2733 3.77635 14.267 3.76397C14.2587 3.75158 14.2421 3.55141 14.2276 3.31822C14.2151 3.08503 14.1964 2.89518 14.1861 2.89518C14.1777 2.89518 14.1092 2.95709 14.0344 3.03344C13.887 3.19028 13.8787 3.20679 13.7063 3.80317C13.5609 4.31083 13.2805 5.60264 13.2473 5.93285C13.2369 6.03398 13.2266 6.05252 13.1933 6.05252C13.1726 6.05252 13.1539 6.04221 13.1539 6.02778C13.1539 6.01331 13.131 5.96998 13.1061 5.93077C13.0791 5.88952 13.0127 5.77808 12.9566 5.68107C12.7697 5.34882 12.5516 5.04135 12.3813 4.86388C12.2879 4.76689 12.1923 4.67816 12.1695 4.66577C12.1113 4.63482 12.0615 4.70292 12.0428 4.83499C12.0345 4.89071 12.02 4.93817 12.0096 4.93817C11.9867 4.93817 11.914 4.79785 11.8164 4.56053C11.7251 4.34178 11.6274 4.17876 11.3782 3.83413C11.2765 3.69174 11.1644 3.53697 11.1311 3.49157C11.0979 3.4441 11.0314 3.36569 10.9816 3.3141L10.8902 3.22123V3.36362C10.8902 3.44617 10.9068 3.55967 10.9317 3.63808C10.9546 3.71238 10.9774 3.80317 10.9837 3.83826C10.992 3.91049 10.9629 3.93112 10.9442 3.86921C10.9359 3.84857 10.8985 3.79492 10.859 3.74952C10.8196 3.70618 10.7864 3.66285 10.7864 3.65459C10.7864 3.6484 10.7075 3.54729 10.6098 3.43172C10.5123 3.31616 10.4333 3.21298 10.4333 3.20266C10.4333 3.19234 10.4022 3.149 10.3627 3.10773C10.3253 3.0644 10.29 3.01074 10.2859 2.98804C10.2797 2.95915 10.2589 2.94471 10.209 2.94058C10.1737 2.93645 10.1426 2.93851 10.1426 2.94264C10.1426 2.94677 10.1696 3.0417 10.2049 3.15519C10.2381 3.26663 10.2672 3.39457 10.2672 3.43791V3.51839L10.1426 3.39045C10.0741 3.32028 10.018 3.25425 10.018 3.24393C10.018 3.23361 9.9868 3.19028 9.94946 3.149C9.90998 3.10567 9.84353 3.0128 9.79993 2.94264C9.75628 2.87041 9.70856 2.80232 9.69401 2.78993C9.64206 2.74866 9.66078 2.91994 9.73761 3.22949C9.77912 3.38839 9.80823 3.5349 9.80405 3.55348C9.79367 3.59681 9.44481 3.25012 9.22258 2.9736C9.09589 2.81676 9.02528 2.74866 8.8903 2.66199C8.79684 2.60008 8.69925 2.54436 8.67224 2.53817C8.62655 2.52785 8.62447 2.53198 8.63902 2.59183C8.693 2.84359 8.7657 2.97153 9.39286 3.91668C9.73969 4.43878 10.0824 4.94849 10.153 5.05167C10.2734 5.22707 10.4167 5.55931 10.3835 5.59233C10.3648 5.61092 10.2838 5.55108 10.207 5.46235C10.1696 5.41694 9.92453 5.09293 9.6649 4.74212C9.35547 4.32734 9.1312 4.04462 9.02319 3.93731L8.85499 3.77222V3.88985C8.85499 3.95795 8.87366 4.05494 8.89859 4.12097C8.94219 4.2386 9.55277 5.23738 9.85183 5.68107C10.1052 6.05872 10.3503 6.39096 10.6846 6.80782C11.1456 7.38565 11.1851 7.42689 11.3658 7.51771C11.5278 7.59817 11.5278 7.60234 11.3782 7.63535C11.2163 7.67248 11.1623 7.63119 10.7615 7.1875C10.5621 6.9667 10.1094 6.5024 9.75424 6.15776C9.16234 5.58202 9.09589 5.52427 8.93599 5.44168C8.84044 5.39215 8.75944 5.35091 8.75741 5.35091C8.75324 5.35091 8.75115 5.37564 8.75115 5.40663C8.75115 5.47469 8.83215 5.61092 8.91935 5.69138C8.95674 5.72439 9.06888 5.86474 9.1686 6.00096C9.27035 6.13714 9.37831 6.2816 9.41362 6.32081C9.58599 6.52719 9.54448 6.59114 9.33059 6.44876C9.11874 6.30842 8.67015 6.04632 8.59541 6.0195C8.56219 6.00711 8.49987 5.97618 8.46039 5.95139C8.42096 5.92874 8.3711 5.90806 8.35242 5.90806C8.31086 5.90806 8.31712 5.92874 8.42716 6.22176C8.52688 6.49001 8.5248 6.5024 8.39811 6.41366C8.27555 6.32904 7.02743 5.67075 6.50823 5.41902C5.97453 5.16104 5.43874 4.95262 5.23106 4.92373C5.17911 4.91754 5.1376 4.91754 5.1376 4.92579C5.1376 4.93404 5.16461 4.99183 5.19784 5.05786C5.28087 5.21676 5.38679 5.31378 5.72945 5.53458C6.10538 5.77392 6.14481 5.7987 6.19467 5.81521C6.2196 5.82349 6.23827 5.84615 6.23827 5.86885C6.23827 5.90806 6.2279 5.91015 6.05552 5.89572C5.91429 5.88536 5.73983 5.84203 5.26219 5.70174C4.92576 5.60061 4.62256 5.51599 4.58933 5.51187L4.52702 5.50568L4.53326 5.62743C4.54156 5.82964 4.54572 5.83172 5.12722 6.0608C5.49272 6.20317 5.9496 6.33732 6.20297 6.37242C6.27775 6.38476 6.3006 6.39507 6.3006 6.42397C6.3006 6.46938 6.27567 6.4735 5.50101 6.52719C4.73885 6.58082 4.71393 6.58494 4.63294 6.64274C4.59556 6.66956 4.54572 6.70258 4.52079 6.71497C4.4938 6.7294 4.47303 6.7459 4.47303 6.7521C4.4751 6.7583 4.57064 6.8099 4.68694 6.86354L4.89876 6.96259L5.44077 6.84912C6.21752 6.68607 6.53316 6.63035 6.75956 6.61592C6.99629 6.60145 7.04615 6.61176 7.13753 6.69227C7.17696 6.72528 7.23303 6.76241 7.26421 6.77481C7.30156 6.78923 7.31819 6.80782 7.31402 6.83256C7.3099 6.85943 7.27668 6.87177 7.17904 6.88213C7.10843 6.89036 6.98174 6.91515 6.89866 6.93785C6.58923 7.02451 5.99528 7.22672 5.89353 7.28041L5.7876 7.33404L5.80633 7.46199C5.81462 7.53214 5.82708 7.61265 5.83329 7.64155L5.84576 7.6931L6.17183 7.66837C6.74292 7.62296 6.89454 7.58786 7.56739 7.34644C7.79374 7.2639 7.92877 7.22468 8.14892 7.17308C8.18626 7.16485 8.12811 7.235 7.93086 7.43309C7.78336 7.57963 7.66711 7.7055 7.67123 7.70961C7.70862 7.74471 7.96408 7.76533 8.3337 7.76533C9.1312 7.76533 9.45931 7.81282 9.95358 7.99649C10.2236 8.09554 10.803 8.38029 10.911 8.467L10.9629 8.50824H10.7698C10.6472 8.50824 10.5559 8.49793 10.5206 8.47934C10.4209 8.42981 9.52784 8.13887 9.30775 8.08315C9.0149 8.013 8.693 7.99853 8.35034 8.04185C8.20081 8.06253 7.8 8.08523 7.42615 8.09554C6.7097 8.11616 6.54562 8.13679 6.1033 8.24823C5.72945 8.34316 5.37224 8.403 4.52495 8.51032C3.96838 8.58047 3.82923 8.60526 3.77939 8.63827C3.74616 8.66098 3.68594 8.69191 3.6444 8.70634C3.58418 8.72701 3.56756 8.74352 3.56341 8.79304C3.55718 8.85287 3.55925 8.85288 3.68594 8.8673C3.96838 8.8962 4.25289 8.88381 5.1376 8.80747C5.3494 8.78893 5.6568 8.77653 5.82291 8.78065L6.12405 8.78684L5.99946 8.85079C5.744 8.98494 5.55708 9.00764 4.48341 9.03446C4.03898 9.04686 3.79601 9.06336 3.61533 9.09846C3.56756 9.10877 3.56133 9.11497 3.5821 9.14179C3.59664 9.1583 3.65479 9.19543 3.71293 9.22433C3.92892 9.33369 3.93723 9.33369 4.46888 9.31307C5.17291 9.28416 5.43874 9.25943 5.825 9.18923C6.01192 9.15418 6.20714 9.12731 6.25903 9.12731L6.35249 9.1294L6.23827 9.18923C6.09912 9.26146 6.07837 9.26766 5.25182 9.48434C4.8863 9.58136 4.49172 9.68863 4.37542 9.72582C4.1719 9.78976 4.16152 9.79596 4.16152 9.8496C4.16152 9.9074 4.16359 9.9074 4.31312 9.92183C4.42111 9.93214 4.53326 9.92391 4.72224 9.89293C5.0649 9.83721 5.25182 9.78148 5.75026 9.58547C6.17391 9.41831 6.32136 9.37498 6.4688 9.37498H6.55392L6.49164 9.42659C6.45633 9.45544 6.4252 9.47815 6.41894 9.47815C6.41273 9.47815 6.36079 9.51116 6.30263 9.55037C6.24245 9.58959 5.81671 9.81247 5.35357 10.0477C4.6807 10.3882 4.50833 10.4831 4.49172 10.5244C4.45018 10.6317 4.45642 10.6338 4.77208 10.5595C5.37224 10.4191 5.52803 10.3634 5.93922 10.1344C6.10121 10.0457 6.24036 9.97343 6.25074 9.97343C6.25903 9.97343 6.34003 9.94042 6.42932 9.89709C6.51866 9.8558 6.59757 9.82898 6.60586 9.83517C6.62453 9.8558 6.53107 9.95073 6.45633 9.98786C6.42311 10.0044 6.35249 10.0581 6.3006 10.1076C6.24865 10.155 6.03477 10.3304 5.82291 10.4935L5.43874 10.7927L5.40134 10.9289C5.38267 11.0032 5.36604 11.1105 5.36604 11.1683C5.36604 11.2632 5.37021 11.2715 5.40343 11.255C5.4221 11.2446 5.51139 11.2034 5.60073 11.1621C5.69211 11.1208 6.07007 10.8814 6.46254 10.6173C7.66711 9.80419 8.5684 9.2099 8.67641 9.1521C8.77191 9.10466 8.8093 9.09846 9.05229 9.09227L9.32225 9.08607L9.22878 9.1232C9.08343 9.17892 9.04191 9.20371 8.35242 9.66801C6.99421 10.5801 6.19676 11.1559 5.89974 11.4365C5.52594 11.7915 5.28504 12.2228 5.19987 12.6871C5.13551 13.0441 5.07321 13.6921 5.06075 14.111L5.04829 14.565L5.10646 14.5134C5.19987 14.4267 5.27466 14.2534 5.31205 14.0284C5.39305 13.5517 5.49689 13.0709 5.54258 12.9657C5.56954 12.9038 5.59656 12.8274 5.60277 12.7944C5.61732 12.7304 5.67756 12.7181 5.67756 12.78C5.67756 12.8026 5.64016 13.1659 5.59447 13.5868C5.54879 14.0078 5.51139 14.4102 5.51139 14.4783V14.6042L5.62561 14.4928C5.76685 14.3545 5.76893 14.3463 5.99946 13.4094C6.09704 13.0111 6.18429 12.6685 6.19467 12.6458C6.23207 12.5695 6.2196 13.007 6.17804 13.3062C6.10121 13.8531 6.10121 13.8696 6.17391 13.9769C6.20922 14.0284 6.23827 14.0862 6.23827 14.109C6.23827 14.1399 6.24865 14.144 6.29643 14.1317C6.37117 14.1131 6.3878 14.0924 6.45013 13.9356C6.49994 13.8159 6.50823 13.7478 6.53733 13.2958C6.556 13.0173 6.57472 12.6789 6.58302 12.5426C6.59757 12.262 6.62453 12.1526 6.72425 11.9999C6.80316 11.8761 6.78444 11.8534 6.92568 12.2146C6.97345 12.3383 7.03369 12.4642 7.06065 12.4952C7.08558 12.5282 7.11468 12.5736 7.12089 12.5963C7.13956 12.65 7.16241 12.6211 7.19359 12.5117C7.21644 12.4292 7.27668 11.7605 7.27668 11.5934C7.27668 11.4882 7.27871 11.482 7.35559 11.4407C7.54246 11.3416 7.69407 11.2694 7.70237 11.2777C7.70862 11.2838 7.719 11.4427 7.7273 11.6326C7.73355 11.8204 7.74602 11.9731 7.75223 11.971C7.75848 11.9669 7.82493 11.9339 7.89555 11.8947C8.06792 11.8018 8.11773 11.7151 8.25479 11.2838C8.31086 11.1022 8.3711 10.9268 8.38356 10.8938L8.41058 10.836L8.49157 10.9722C8.53518 11.0486 8.60371 11.1476 8.64314 11.193C8.71376 11.2735 8.71584 11.2756 8.75741 11.2384C8.82385 11.1806 8.97547 10.9351 9.08969 10.7081C9.14575 10.5925 9.21011 10.479 9.23504 10.4542C9.25789 10.4295 9.34718 10.3779 9.43443 10.3428C9.6587 10.25 9.80197 10.1777 10.099 10.0003C10.5081 9.75675 10.6119 9.73816 10.5226 9.9198C10.4499 10.0663 10.1987 10.3449 9.64415 10.8917C9.07514 11.451 8.91731 11.6264 8.91731 11.6862C8.91731 11.7523 9.00452 11.7894 9.21011 11.8121C9.43647 11.8348 9.50296 11.8575 9.48632 11.9029C9.46765 11.9483 9.1831 12.1299 8.80513 12.3342C8.26934 12.6252 8.10735 12.7449 8.10735 12.8563C8.10735 12.9224 8.17588 12.9451 8.36489 12.9451C8.61617 12.9451 8.62029 13.0111 8.38148 13.2071C8.31712 13.2628 8.16133 13.3722 8.03882 13.4507C7.24758 13.9624 7.18113 14.0119 7.22056 14.0511C7.23511 14.0656 7.31611 14.0491 7.53625 13.9892C7.72318 13.9377 7.71071 13.9851 7.46355 14.2637C7.38255 14.3545 7.24758 14.4804 7.16241 14.5444C6.99212 14.6723 6.96516 14.7053 6.96516 14.8044C6.96516 14.8684 6.96516 14.8704 7.05027 14.8581C7.1998 14.8374 7.57156 14.6001 7.97237 14.2658C8.10944 14.1523 8.1593 14.1337 8.13849 14.208C8.0928 14.3545 8.02015 14.4804 7.89555 14.6228C7.49677 15.083 7.28706 15.5163 7.38047 15.6897C7.40957 15.7433 7.51549 15.7764 7.58403 15.7495C7.66914 15.7186 7.78545 15.5948 7.90384 15.4111C8.15929 15.0169 8.20498 14.953 8.27143 14.8787C8.35655 14.7858 8.43134 14.7734 8.40849 14.8581C8.40223 14.889 8.32332 15.0727 8.23403 15.2666C8.03053 15.7062 7.98275 15.8321 7.97654 15.9538C7.97237 16.0446 7.97654 16.0508 8.02635 16.057C8.16967 16.0735 8.34825 15.8156 8.95883 14.7094C9.39078 13.9294 9.58808 13.5992 9.7023 13.4754C9.8186 13.3536 9.83728 13.4218 9.80614 13.8159C9.78747 14.0305 9.78747 14.111 9.80614 14.1523C9.856 14.2596 9.95358 14.1997 10.1447 13.9439C10.2734 13.7705 10.4832 13.4156 10.8466 12.7614C11.0314 12.4271 11.1976 12.134 11.2142 12.1113C11.2412 12.0721 11.2433 12.0742 11.2433 12.1464C11.2433 12.4168 11.0335 13.0317 10.6348 13.9356C10.5268 14.1791 10.4292 14.4123 10.4167 14.4515C10.3856 14.5423 10.3793 14.6414 10.4001 14.6744C10.4209 14.7074 10.4935 14.7053 10.558 14.6682C10.6389 14.6228 10.7012 14.629 10.7241 14.6868C10.749 14.7528 10.7241 14.8952 10.6327 15.2274C10.5081 15.6732 10.4666 15.9621 10.5164 16.0405C10.5309 16.0653 10.5413 16.0632 10.5787 16.0302C10.6514 15.9641 10.7656 15.7578 10.8694 15.5039C10.992 15.2026 11.0024 15.1985 11.235 15.3905C11.3243 15.4647 11.4136 15.5225 11.4302 15.5205C11.5153 15.5039 11.6462 14.8849 11.8351 13.6054C11.9099 13.0998 11.9784 12.6685 11.9846 12.6458C11.993 12.6149 12.0096 12.6479 12.0449 12.7593C12.0719 12.8501 12.1113 12.9286 12.1383 12.9492C12.2962 13.0792 12.6451 12.8522 12.913 12.4498C13.0687 12.2146 13.1684 12.134 13.3719 12.0845C13.4945 12.0556 13.5319 12.0556 13.8247 12.0866C14.0012 12.1051 14.1736 12.1299 14.2089 12.1423C14.3023 12.1733 14.3501 12.1382 14.3896 12.0123C14.4061 11.9545 14.4207 11.8492 14.4207 11.7791C14.4207 11.4118 14.1071 10.6936 13.8974 10.5822L13.8205 10.543L13.6959 10.6028C13.6253 10.6358 13.5651 10.6771 13.5588 10.6936C13.5526 10.7122 13.5111 10.7494 13.4675 10.7783C13.3699 10.8381 13.347 10.8773 13.3325 11.0238C13.3262 11.0878 13.3055 11.1517 13.2847 11.1744C13.2266 11.2384 13.0625 11.3127 12.9026 11.3499C12.7676 11.3787 12.751 11.3787 12.6638 11.3457C12.5039 11.2859 12.4332 11.1476 12.373 10.7824C12.3294 10.51 12.3045 10.413 12.2464 10.2995C12.182 10.1694 12.1363 10.1426 11.9265 10.1138C11.6358 10.0746 11.6379 10.0746 11.5776 10.1777C11.5485 10.2272 11.5153 10.2685 11.5028 10.2706C11.4613 10.2747 11.3014 9.90943 11.3326 9.8785C11.3367 9.87439 11.3679 9.8785 11.4011 9.89089C11.4904 9.92594 11.5444 9.90121 11.6254 9.78768C11.6669 9.73196 11.7084 9.68452 11.7209 9.68452C11.7313 9.68452 11.7874 9.72581 11.8435 9.77737C11.9618 9.88058 12.0387 9.90329 12.2214 9.88261C12.4644 9.85788 12.4873 9.89293 12.6119 10.4873C12.7032 10.9227 12.7406 11.0115 12.8278 11.0218C12.8735 11.028 12.8964 11.0094 12.9711 10.9082C13.021 10.8422 13.1103 10.6916 13.1726 10.576C13.2328 10.4604 13.32 10.3243 13.3657 10.2747C13.4322 10.1963 13.4654 10.1777 13.5651 10.1571C13.725 10.1241 13.8205 10.0746 13.9659 9.94042C14.0324 9.8785 14.0988 9.82898 14.1134 9.82898C14.1258 9.82898 14.1819 9.87642 14.2359 9.93422C14.2982 10.0023 14.3376 10.0312 14.348 10.0147C14.3854 9.95484 14.2691 9.48023 14.1403 9.16653C14.0884 9.04066 14.0469 8.91682 14.0469 8.89001C14.0469 8.75175 14.2109 8.73732 14.6907 8.82809C15.1745 8.92099 15.2493 8.9024 15.0936 8.73112C15.0541 8.68571 15.023 8.63827 15.0271 8.62588C15.0313 8.61145 15.0728 8.58458 15.1185 8.56396C15.3386 8.46283 15.349 8.44632 15.2514 8.33696C15.1891 8.26474 14.9545 8.13267 14.7675 8.06456C14.7135 8.04394 14.645 8.00472 14.6159 7.9779C14.5681 7.93458 14.5619 7.91599 14.5702 7.82105C14.5806 7.68488 14.6699 7.54453 14.9295 7.24942C15.6419 6.43845 16.0053 5.79251 16.2794 4.85563C16.4082 4.41608 16.3812 4.34178 16.1922 4.60799C15.9139 5.00008 15.7955 5.13422 15.7582 5.09912C15.7374 5.07643 15.7955 4.91754 16.0032 4.41608C16.2171 3.90016 16.2836 3.70412 16.2628 3.65047C16.2503 3.61951 16.242 3.61951 16.1922 3.64634C16.0634 3.71238 15.889 3.93731 15.6667 4.31908C15.4196 4.74419 15.3636 4.79785 15.3801 4.59148C15.3926 4.45115 15.4799 4.22828 15.9264 3.21298C16.1049 2.81057 16.2545 2.45356 16.2628 2.42055C16.2815 2.31736 16.215 2.34419 16.0634 2.49896C15.9367 2.62897 15.8703 2.72802 15.6543 3.10979C15.5359 3.32028 15.511 3.31616 15.5297 3.08916C15.538 2.98804 15.5567 2.78993 15.5733 2.64754C15.6315 2.13164 15.6169 1.92527 15.5338 2.08417Z" fill="#323232"/>
<path d="M19.8406 4.44721C19.7242 4.52769 19.4107 4.7939 19.0722 5.10138C18.8936 5.26234 18.7731 5.35519 18.688 5.3944C18.5301 5.46663 18.4491 5.48726 18.4491 5.45424C18.4491 5.39649 18.5176 5.31806 18.906 4.92804C19.1823 4.65151 19.3234 4.49468 19.3338 4.45546C19.3484 4.39562 19.3463 4.39562 19.2778 4.41006C19.2383 4.41626 19.1614 4.4534 19.1033 4.49055C19.0472 4.52975 18.9621 4.58341 18.9164 4.6123C18.8707 4.64119 18.6755 4.80628 18.4824 4.98169C18.0234 5.39649 17.2342 6.0692 16.9331 6.30239C16.5178 6.6264 16.2187 6.81211 15.7701 7.02879C15.5354 7.14232 15.3215 7.25167 15.2924 7.27027C15.2634 7.29089 15.2177 7.31359 15.1887 7.32187C15.1595 7.3301 15.1201 7.35072 15.0993 7.36931C15.064 7.40025 15.0661 7.40644 15.1409 7.48075C15.2302 7.57152 15.2592 7.57569 15.604 7.5282C15.8033 7.50138 16.2748 7.38374 16.3662 7.3363C16.3869 7.32599 16.4284 7.31151 16.4617 7.30328C16.5385 7.28469 16.5364 7.3301 16.4534 7.46013C16.3911 7.5571 16.389 7.56121 16.4243 7.61282C16.443 7.64172 16.5157 7.69333 16.5863 7.72426C16.8542 7.85221 17.1013 7.8584 17.3796 7.74488C17.471 7.70775 17.6018 7.67473 17.6703 7.66854C17.7887 7.65823 17.7929 7.66026 17.7596 7.69333C17.741 7.71395 17.6932 7.749 17.6538 7.77378C17.6122 7.79649 17.5083 7.86663 17.4191 7.92444C17.3298 7.98427 17.2238 8.03999 17.1844 8.04822C17.1075 8.0627 16.8895 8.0338 16.362 7.94298C15.9425 7.86872 15.4939 7.83773 15.3112 7.86872C15.2219 7.88314 15.1678 7.90173 15.1741 7.91616C15.1782 7.92855 15.2655 7.98839 15.3672 8.04822C15.469 8.10602 15.5832 8.18856 15.6206 8.22778C15.7078 8.32479 15.712 8.45477 15.631 8.61985L15.5749 8.73338L15.631 8.83862C15.6995 8.97068 15.6995 8.99339 15.6351 9.06973C15.523 9.2018 15.5438 9.25132 16.1273 10.2212C16.551 10.9229 16.8521 11.4718 16.9809 11.769C17.1387 12.1384 17.2342 12.5429 17.3173 13.1929C17.4025 13.8512 17.4585 14.1421 17.5561 14.4311C17.6122 14.592 17.8448 15.0935 17.9424 15.2565C18.0753 15.4835 18.2477 15.6011 18.4948 15.6383L18.5924 15.6527L18.5426 15.4711C18.4803 15.2379 18.4678 15.207 18.1314 14.4517C17.9757 14.105 17.8386 13.781 17.8261 13.7294C17.8137 13.6778 17.8054 13.585 17.8095 13.5231L17.8157 13.4095L17.9237 13.6159C17.9819 13.7294 18.1667 14.0637 18.3308 14.3588C18.58 14.8046 18.6443 14.9016 18.7025 14.9367C18.742 14.9594 18.8084 15.0048 18.8499 15.0398C18.9662 15.1347 19.0472 15.1946 19.0597 15.1946C19.0846 15.1946 19.0701 14.852 19.0431 14.7447C19.0036 14.6002 18.9351 14.4744 18.742 14.1855C18.4201 13.7047 18.1085 13.1536 18.0753 13.003C18.0608 12.9432 18.0546 12.8606 18.0587 12.8235L18.0649 12.7513L18.148 12.8854C18.1916 12.9576 18.2685 13.0691 18.3162 13.131C18.3619 13.1929 18.5073 13.3972 18.636 13.585C18.9372 14.0225 18.985 14.0802 19.0306 14.0802C19.0576 14.0802 19.0722 14.0988 19.0763 14.1359C19.0805 14.1752 19.0971 14.1958 19.1241 14.1999C19.1469 14.2041 19.2009 14.2412 19.2445 14.2825L19.3214 14.3567V14.2123C19.3214 14.1318 19.311 14.0348 19.2965 13.9957C19.2612 13.8904 18.823 13.1206 18.6174 12.8008C18.5176 12.6481 18.283 12.3138 18.0961 12.0579C17.6122 11.3975 16.875 10.2687 16.686 9.89518C16.6527 9.82915 16.6112 9.76312 16.5925 9.74869C16.5635 9.7239 16.5635 9.71979 16.5925 9.68886C16.632 9.65168 16.632 9.65167 16.7379 9.85597C16.8687 10.1078 17.1989 10.5225 17.5125 10.8238C17.9424 11.2407 19.3941 12.3777 19.8593 12.6646C20.1147 12.8214 20.1978 12.8544 20.4283 12.8936C20.5321 12.9122 20.773 12.9783 20.962 13.0381C21.2819 13.1433 21.6286 13.2342 21.7013 13.2342C21.7512 13.2342 21.7242 13.1475 21.6141 12.9597C21.5622 12.8689 21.5228 12.7926 21.529 12.7884C21.5331 12.7843 21.6141 12.8091 21.7075 12.8421C21.8592 12.8978 22.1873 12.9514 22.1873 12.9205C22.1873 12.8462 22.0294 12.5841 21.9152 12.4727C21.8758 12.4334 21.7138 12.353 21.4459 12.2415C20.7917 11.9712 20.609 11.8701 20.6754 11.8164C20.717 11.7834 20.8353 11.7504 21.0036 11.7277C21.2673 11.6905 21.2943 11.6844 21.2943 11.6658C21.2943 11.6452 21.1801 11.6101 20.6713 11.4718C20.2891 11.3707 19.9216 11.2427 19.5187 11.0715C19.1532 10.9188 18.3349 10.5328 18.2228 10.4606C18.1376 10.407 18.1335 10.4008 18.1709 10.3802C18.2498 10.3347 18.6257 10.3595 18.9476 10.4276C19.1137 10.4627 19.3567 10.5143 19.4875 10.5432C19.8883 10.6257 20.2123 10.603 20.1542 10.4936C20.1438 10.473 20.069 10.4214 19.988 10.376C19.907 10.3306 19.8406 10.2873 19.8406 10.279C19.8406 10.2192 20.4221 10.1821 21.3483 10.18C21.8903 10.18 22.0918 10.1676 22.0731 10.1387C22.0544 10.1078 21.7823 10.0169 21.6474 9.99631C21.5747 9.98392 21.3275 9.96538 21.097 9.95298C20.2517 9.90966 19.9361 9.87867 19.8343 9.82503C19.772 9.7941 19.8115 9.77343 19.9797 9.75072C20.2414 9.71359 20.3515 9.7074 21.1718 9.66407C21.6038 9.64136 21.9983 9.61454 22.0523 9.60423C22.2351 9.56913 22.2288 9.50519 22.0378 9.47628C21.9776 9.46597 21.666 9.43499 21.3462 9.40614C20.5093 9.32974 20.2476 9.29261 20.2912 9.24929C20.3016 9.23898 20.4013 9.21627 20.5155 9.19976C20.6982 9.17294 20.935 9.15435 22.0482 9.08624C22.2288 9.07593 22.395 9.05734 22.4158 9.045C22.503 8.9975 22.4511 8.89846 22.316 8.85721C22.1811 8.81592 21.4666 8.80972 21.1385 8.84893C20.8021 8.88814 19.7534 8.91496 19.6765 8.88606C19.6163 8.86336 19.7783 8.81592 20.6297 8.61162C21.2465 8.46508 21.5871 8.35984 21.6639 8.28969L21.72 8.24017L21.6702 8.19887C21.6038 8.14315 21.4854 8.14524 21.232 8.20919C20.5778 8.37432 18.3661 8.62402 18.3661 8.5332C18.3661 8.4981 18.526 8.45889 19.0722 8.35364C19.9174 8.19065 20.5051 8.04207 20.5051 7.99047C20.5051 7.95745 20.3078 7.96985 19.5602 8.04411C18.6007 8.13904 17.9715 8.16794 17.9715 8.11634C17.9715 8.08743 18.2145 7.99255 18.7337 7.81919C19.2965 7.62933 19.6038 7.50966 19.7513 7.42295C19.8738 7.35281 19.986 7.23314 19.986 7.17325C19.986 7.0742 19.8073 7.08451 19.2985 7.21043C19.0036 7.28266 18.7814 7.31151 18.7814 7.28058C18.7814 7.2723 18.7959 7.24136 18.8105 7.21043C18.8313 7.17122 18.8749 7.14023 18.9414 7.1155C19.3359 6.96896 19.905 6.69244 20.0753 6.56246C20.1916 6.47575 20.2788 6.354 20.2621 6.30448C20.2435 6.25703 20.0981 6.27974 19.5602 6.41383C19.2632 6.48814 19.014 6.54595 19.0036 6.54178C18.9953 6.53975 19.1905 6.43034 19.4397 6.30239C20.2808 5.86491 20.5321 5.71634 20.6734 5.57599C20.7647 5.48522 20.773 5.44601 20.7087 5.41091C20.6339 5.36967 20.4449 5.40268 20.2081 5.49762C20.0856 5.54506 19.9797 5.57807 19.9735 5.57188C19.9465 5.54506 20.0296 5.45424 20.2808 5.22933C20.4221 5.10549 20.6007 4.92804 20.6796 4.83724C20.7585 4.74644 20.8395 4.66596 20.8602 4.65977C20.9018 4.64532 20.9516 4.57103 20.9329 4.55245C20.9163 4.53595 20.7336 4.62675 20.1106 4.96312C19.4315 5.33046 19.3006 5.39852 19.3006 5.37998C19.3006 5.35727 19.3878 5.24172 19.6225 4.95899C19.8883 4.63707 20.0275 4.44721 20.0275 4.408C20.0275 4.36054 19.9382 4.37911 19.8406 4.44721Z" fill="#323232"/>
<path d="M14.4499 9.09437C14.4437 9.11296 14.4582 9.17488 14.4832 9.23263C14.5081 9.29044 14.5413 9.3998 14.558 9.47614C14.5995 9.66809 14.6389 10.38 14.6202 10.5988C14.6057 10.768 14.6016 10.7804 14.56 10.7742C14.5102 10.768 14.2506 10.4687 14.1468 10.2996C14.126 10.2686 14.1011 10.2418 14.0886 10.2418C14.0367 10.2418 14.0824 10.3697 14.2506 10.6999C14.6701 11.5212 14.7801 11.9814 14.6327 12.293C14.5995 12.3631 14.5372 12.454 14.4935 12.4952C14.425 12.5633 14.4022 12.5736 14.315 12.5736C14.2111 12.5736 13.9474 12.5097 13.6421 12.4106L13.4573 12.3508L13.422 12.4251C13.4032 12.4684 13.3679 12.52 13.341 12.5427C13.2267 12.6418 13.1748 12.7408 13.1748 12.8564C13.1748 13.1453 13.5486 14.5568 13.6546 14.6682C13.694 14.7074 13.694 14.7054 13.694 14.5733C13.694 14.499 13.6712 14.239 13.6421 13.9975C13.5902 13.5724 13.5798 13.3372 13.6193 13.4301C13.7106 13.655 13.775 13.851 13.8934 14.2555C14.0927 14.9386 14.1633 15.1284 14.2506 15.2151C14.29 15.2543 14.344 15.3204 14.371 15.3637C14.4499 15.4875 14.4624 15.4792 14.4624 15.3121C14.4624 15.2151 14.4063 14.8519 14.3067 14.2885C14.2215 13.8098 14.1509 13.3929 14.1509 13.364C14.1509 13.265 14.1862 13.3413 14.2402 13.5642C14.3399 13.9645 14.6286 14.8251 14.7262 15.0129C14.7781 15.114 14.8279 15.1945 14.8383 15.1945C14.8487 15.1945 14.857 15.083 14.857 14.9468C14.857 14.726 14.8445 14.6414 14.7324 14.1111C14.6618 13.7767 14.6098 13.4755 14.6098 13.4136C14.6119 13.3537 14.6182 13.3248 14.6223 13.3454C14.6286 13.3682 14.749 13.7148 14.8923 14.1193C15.0356 14.5238 15.1727 14.9097 15.1934 14.9778C15.2163 15.0459 15.2495 15.1367 15.2682 15.18C15.2993 15.2543 15.3014 15.2564 15.3367 15.2213C15.3866 15.1697 15.4592 14.9118 15.4592 14.7838C15.4592 14.7239 15.4073 14.4557 15.345 14.1854C15.2827 13.9171 15.2163 13.6055 15.1997 13.494C15.1581 13.2134 15.1041 12.4499 15.127 12.4499C15.1415 12.4499 15.2059 12.6954 15.3866 13.4404C15.7209 14.8168 15.7646 14.9654 15.9057 15.1635C15.9473 15.2192 16.0096 15.3121 16.047 15.3699L16.1134 15.473L16.1197 15.3431C16.1238 15.2605 16.1051 15.1119 16.0719 14.9448C16.0408 14.7962 16.022 14.6703 16.0262 14.6641C16.047 14.6456 16.2048 14.8932 16.3398 15.1532C16.4125 15.2956 16.4976 15.4338 16.5267 15.4607L16.5807 15.5102V15.4173C16.5807 15.2398 16.4976 14.8333 16.3274 14.1936C16.0865 13.2753 15.9369 12.8646 15.615 12.2229C15.5548 12.1031 15.453 11.8885 15.3886 11.7441C15.2765 11.4923 15.2724 11.4738 15.2744 11.3107V11.1394L15.3803 11.3458C15.4385 11.4593 15.6129 11.8122 15.7666 12.13C16.3917 13.4218 16.562 13.8634 16.7884 14.7631C16.915 15.2667 16.9898 15.4916 17.0542 15.568C17.1144 15.6423 17.1518 15.6423 17.1954 15.5763C17.2681 15.4648 17.1871 15.0707 16.9047 14.142C16.6368 13.2608 16.4208 12.6665 16.182 12.1403C15.9307 11.5872 15.7437 11.0817 15.6586 10.7164C15.642 10.6441 15.6316 10.5802 15.6358 10.5761C15.6565 10.5554 15.7915 10.8196 16.1903 11.6553C16.4291 12.1547 16.6679 12.6356 16.7219 12.7264C16.8299 12.9059 16.9317 13.007 17.0023 13.007C17.1144 13.005 17.1477 12.9204 17.1207 12.7037C17.0708 12.3136 16.9732 12.1011 16.3357 10.9847C15.7126 9.89508 15.3181 9.43281 14.7843 9.1666C14.587 9.06959 14.4687 9.04277 14.4499 9.09437Z" fill="#323232"/>
<path d="M12.3502 13.2318C12.0616 13.4464 11.9702 13.5662 11.9702 13.7271C11.9702 13.8633 12.018 13.9686 12.1467 14.1151C12.1987 14.1728 12.2402 14.2244 12.2402 14.2286C12.2402 14.2327 12.2007 14.2327 12.1509 14.2286C12.0865 14.2224 12.0491 14.2327 12.0118 14.2616C11.964 14.2987 11.9598 14.3173 11.964 14.4432C11.9702 14.6371 12.0346 14.8353 12.126 14.9405C12.1655 14.988 12.1987 15.0293 12.1987 15.0355C12.1987 15.0396 12.1613 15.0499 12.1177 15.0581C12.0657 15.0664 12.0221 15.0891 12.0035 15.1159C11.9578 15.1799 11.9619 15.3347 12.0118 15.5348C12.0554 15.7041 12.0969 15.7866 12.1488 15.8072C12.1966 15.8258 12.182 15.8506 12.1281 15.8402C12.0076 15.8175 11.9391 16.0157 11.9536 16.3376C11.964 16.5419 12.0035 16.6472 12.1031 16.74C12.1758 16.8081 12.1717 16.8246 12.0761 16.8246C11.9328 16.8246 11.8872 16.9051 11.8872 17.1548C11.8872 17.419 11.9183 17.5159 12.0388 17.6439L12.1426 17.7532H12.0491C11.9993 17.7532 11.9411 17.7656 11.9204 17.7801C11.8643 17.8213 11.8477 17.9452 11.8684 18.1598C11.8892 18.3909 11.9183 18.5065 11.9723 18.5808C12.0242 18.653 12.0221 18.6612 11.9598 18.6612C11.8498 18.6612 11.8062 18.8511 11.8436 19.1875C11.8601 19.3278 11.883 19.4268 11.9183 19.4991C11.9474 19.5569 11.9702 19.6085 11.9702 19.6146C11.9702 19.6208 11.9474 19.6332 11.9183 19.6394C11.8207 19.6642 11.7958 19.7343 11.8103 19.9469C11.8248 20.1574 11.8705 20.3328 11.9328 20.4215C11.9723 20.4752 11.9723 20.4772 11.9349 20.4896C11.7874 20.533 11.7293 20.6196 11.7085 20.8219C11.6857 21.0282 11.7065 21.086 11.8601 21.2449L11.9972 21.3852H11.8601C11.6587 21.3852 11.6483 21.4059 11.6649 21.7732C11.6732 21.928 11.694 22.1199 11.7106 22.2004C11.7272 22.2788 11.7417 22.3469 11.7417 22.351C11.7417 22.3531 11.7189 22.3655 11.6919 22.3758C11.6213 22.4026 11.5964 22.5037 11.5964 22.7802C11.5964 23.096 11.6047 23.1311 11.7023 23.1868C11.7999 23.2404 11.8041 23.2631 11.721 23.2631C11.6255 23.2631 11.5549 23.3065 11.5113 23.3911C11.4531 23.5046 11.4178 23.8595 11.4448 24.0556C11.4656 24.2042 11.4739 24.2186 11.5839 24.3404L11.7002 24.4703L11.5611 24.493C11.449 24.5096 11.4136 24.5261 11.368 24.5777C11.2849 24.6705 11.2599 24.8088 11.2849 25.0503C11.3077 25.2731 11.314 25.2896 11.4178 25.3866C11.4593 25.4258 11.4926 25.4753 11.4926 25.4939C11.4926 25.5269 11.4843 25.5249 11.3866 25.4857C11.2932 25.4464 11.2766 25.4444 11.2288 25.4712C11.1499 25.5166 11.1042 25.5847 11.0357 25.7705C10.9443 26.0098 10.9215 26.1666 10.9526 26.3235C11.0461 26.8023 11.5113 26.9797 12.2111 26.8023C12.4292 26.7466 13.3076 26.501 13.3554 26.4824C13.4343 26.4494 13.453 26.3276 13.4551 25.8221C13.4551 25.3495 13.4426 25.1947 13.3969 25.1349C13.3762 25.1039 13.3533 25.1039 13.2308 25.1225C13.1519 25.1349 13.0834 25.139 13.0771 25.1328C13.0522 25.108 13.1166 25.0255 13.2059 24.9697C13.3347 24.8872 13.3804 24.8047 13.426 24.5488C13.4468 24.4291 13.4655 24.3197 13.4655 24.3094C13.4655 24.2888 13.1083 24.3032 13.046 24.3259C12.9899 24.3486 13.0252 24.2599 13.0938 24.2062C13.3222 24.0329 13.3243 24.0287 13.37 23.7481C13.3886 23.6346 13.4073 23.5149 13.4136 23.4819C13.424 23.4241 13.4219 23.4241 13.3471 23.4344C13.3035 23.4427 13.1913 23.453 13.0979 23.4613C12.9546 23.4736 12.9255 23.4695 12.9255 23.4468C12.9255 23.4097 13.2786 23.0361 13.3139 23.0361C13.3492 23.0361 13.3824 22.902 13.3824 22.7575C13.3824 22.5759 13.3762 22.5718 13.1872 22.6007C13.1 22.6131 13.0148 22.6234 12.9982 22.6234C12.9339 22.6234 12.9712 22.5615 13.0875 22.4748C13.1519 22.4253 13.2225 22.3531 13.2412 22.3118C13.3305 22.1343 13.3035 21.8 13.1955 21.6907C13.1436 21.6411 13.1207 21.6329 13.0148 21.6329L12.8944 21.6308L12.9692 21.5648C13.0128 21.5297 13.0834 21.474 13.1291 21.443C13.2267 21.379 13.2578 21.2986 13.2578 21.1108C13.2578 20.9044 13.2101 20.8384 13.0252 20.7992C12.9463 20.7806 12.9525 20.7373 13.0501 20.6217C13.1664 20.4834 13.2204 20.3493 13.2329 20.1718C13.2453 19.984 13.1996 19.852 13.1041 19.7942C13.0688 19.7736 13.0231 19.755 13.0024 19.755C12.9359 19.755 12.9401 19.6972 13.0169 19.6085C13.1103 19.497 13.1415 19.3608 13.1436 19.0492C13.1436 18.8367 13.1394 18.8016 13.1 18.75C13.075 18.719 13.0356 18.6901 13.0107 18.686C12.9878 18.6819 12.9671 18.6757 12.9671 18.6716C12.9671 18.6695 12.994 18.6159 13.0252 18.5539C13.0917 18.4301 13.1436 18.1598 13.1249 18.0525C13.1062 17.9596 13.0647 17.9328 12.9504 17.9349L12.8529 17.939L12.9712 17.8296C13.0356 17.7718 13.1041 17.6913 13.1228 17.6522C13.1768 17.5448 13.1851 17.3859 13.1457 17.2105C13.1083 17.0413 13.0501 16.9484 12.9857 16.9484C12.9484 16.9484 12.9504 16.9423 13.0024 16.8989C13.0585 16.8494 13.0605 16.8432 13.0585 16.6451C13.0564 16.4264 13.0211 16.2942 12.9421 16.2117C12.9172 16.1849 12.8798 16.1643 12.8591 16.1643C12.8113 16.1643 12.8113 16.1333 12.8591 16.0652C12.9421 15.9455 13.0086 15.6855 13.0086 15.4812C13.0086 15.3243 12.9837 15.279 12.884 15.2583C12.8051 15.2418 12.8072 15.248 12.8425 15.0705C12.8777 14.9034 12.8923 13.822 12.8632 13.595C12.8341 13.3577 12.776 13.1864 12.7116 13.141C12.6202 13.0771 12.5268 13.0998 12.3502 13.2318Z" fill="#323232"/>
</g>
<defs>
<linearGradient id="paint0_linear_303_96" x1="12.2106" y1="32" x2="12.2106" y2="25.9048" gradientUnits="userSpaceOnUse">
<stop stop-color="#B49A6F"/>
<stop offset="0.289348" stop-color="#CAAE7C"/>
<stop offset="0.677551" stop-color="#F1D497"/>
<stop offset="1" stop-color="#F6DFB0"/>
</linearGradient>
<linearGradient id="paint1_linear_303_96" x1="12.2105" y1="21.8413" x2="12.2105" y2="24.8889" gradientUnits="userSpaceOnUse">
<stop stop-color="#074977"/>
<stop offset="0.486266" stop-color="#1493B9"/>
<stop offset="0.767159" stop-color="#34BFD3"/>
<stop offset="1" stop-color="#41CFDE"/>
</linearGradient>
<linearGradient id="paint2_linear_303_96" x1="12.2105" y1="7.61914" x2="12.2105" y2="21.8414" gradientUnits="userSpaceOnUse">
<stop stop-color="#EB737A"/>
<stop offset="0.35981" stop-color="#EB737A"/>
<stop offset="0.834872" stop-color="#E3DE5B"/>
<stop offset="1" stop-color="#D59720"/>
</linearGradient>
<clipPath id="clip0_303_96">
<rect width="24.4211" height="32" fill="white"/>
</clipPath>
</defs>
</svg>
