<svg width="48" height="48" viewBox="0 0 48 48" fill="none" xmlns="http://www.w3.org/2000/svg">
<path d="M42 42C42 42 42 39.525 41.7937 38.2312C41.625 37.2094 40.2094 35.8594 34.1906 33.6469C28.2656 31.4719 28.6312 32.5312 28.6312 28.5281C28.6312 25.9312 29.9531 27.4406 30.7969 22.5094C31.125 20.5688 31.3875 21.8625 32.1 18.75C32.475 17.1187 31.8469 16.9969 31.9219 16.2188C31.9969 15.4406 32.0719 14.7469 32.2125 13.1531C32.3813 11.1844 30.5531 6 24 6C17.4469 6 15.6187 11.1844 15.7969 13.1625C15.9375 14.7469 16.0125 15.45 16.0875 16.2281C16.1625 17.0063 15.5344 17.1281 15.9094 18.7594C16.6219 21.8625 16.8844 20.5687 17.2125 22.5187C18.0563 27.45 19.3781 25.9406 19.3781 28.5375C19.3781 32.55 19.7437 31.4906 13.8187 33.6562C7.8 35.8594 6.375 37.2188 6.21563 38.2406C6 39.525 6 42 6 42H24H42Z" fill="#EB737A"/>
</svg>
