<svg width="48" height="48" viewBox="0 0 48 48" fill="none" xmlns="http://www.w3.org/2000/svg">
<g clip-path="url(#clip0_270_164)">
<path d="M39 39H27V42H39V39Z" fill="#EB737A"/>
<path d="M45 33H27V36H45V33Z" fill="#EB737A"/>
<path d="M45 27H27V30H45V27Z" fill="#EB737A"/>
<path d="M30.8254 16.8255L24.0019 3L17.1784 16.8255L1.92188 19.0425L12.9619 29.805L10.3549 45L21.0019 39.4035V36.0135L14.3404 39.516L15.9184 30.312L16.1854 28.7565L15.0559 27.657L8.36888 21.1365L17.6104 19.794L19.1704 19.5675L19.8694 18.153L24.0019 9.7785L28.1344 18.153L28.8334 19.5675L30.3934 19.794L41.5744 21.4215L42.0019 18.45L30.8254 16.8255Z" fill="#EB737A"/>
</g>
<defs>
<clipPath id="clip0_270_164">
<rect width="48" height="48" fill="white"/>
</clipPath>
</defs>
</svg>
