<svg width="48" height="39" viewBox="0 0 48 39" fill="none" xmlns="http://www.w3.org/2000/svg">
<g clip-path="url(#clip0_261_106)">
<path d="M36.345 4.65009C37.695 3.96009 39.195 3.60009 40.71 3.60009H45.015C47.04 3.60009 48.4425 5.62134 47.73 7.51509C46.365 11.1676 43.6575 14.1676 40.17 15.9151L19.71 26.1451C19.3725 26.3101 19.005 26.4001 18.63 26.4001H8.3025C7.605 26.4001 6.9375 26.0926 6.4815 25.5601L1.0005 19.1701C0.49215 18.5776 0.676425 17.6626 1.37475 17.3101L3.78675 16.1101C4.42875 15.7876 5.1795 15.7651 5.835 16.0576L10.1325 17.9326L17.595 14.2276L6.573 7.14009C5.79075 6.63684 5.85375 5.47359 6.6855 5.05734L10.125 3.33609C11.2575 2.73909 12.7125 2.66634 13.9575 3.13509L28.575 8.61759L36.345 4.65009ZM0 36.0001C0 34.6726 1.07475 33.6001 2.4 33.6001H45.6C46.9275 33.6001 48 34.6726 48 36.0001C48 37.3276 46.9275 38.4001 45.6 38.4001H2.4C1.07475 38.4001 0 37.3276 0 36.0001Z" fill="#EB737A"/>
</g>
<defs>
<clipPath id="clip0_261_106">
<rect width="48" height="38.4" fill="white"/>
</clipPath>
</defs>
</svg>
